M48
;DRILL file {KiCad 4.0.2-stable} date 06/07/2016 01:48:29
;FORMAT={-:-/ absolute / inch / decimal}
FMAT,2
INCH,TZ
T1C0.138
T2C0.256
T3C0.283
%
G90
G05
M72
T1
X1.8701Y-1.8701
X1.8701Y-5.689
X1.8701Y-9.5079
X1.8701Y-13.3661
X7.0669Y-1.8701
X7.0669Y-5.689
X7.0669Y-9.5079
X7.0669Y-13.3661
T2
X3.7008Y-11.8307
X3.7008Y-12.5787
X3.7008Y-13.3268
X4.252Y-11.8307
X4.252Y-12.5787
X4.252Y-13.3268
X4.8031Y-11.8307
X4.8031Y-12.5787
X4.8031Y-13.3268
X5.3543Y-11.8307
X5.3543Y-12.5787
X5.3543Y-13.3268
X5.9055Y-11.8307
X5.9055Y-12.5787
X5.9055Y-13.3268
X6.4567Y-11.8307
X6.4567Y-12.5787
X6.4567Y-13.3268
T3
X2.5984Y-6.437
X2.5984Y-11.8307
X2.5984Y-13.3268
X3.7402Y-3.248
X3.7402Y-5.0197
X3.8583Y-6.437
X3.8583Y-9.626
X3.8583Y-10.8858
X5.1181Y-6.437
X5.1181Y-9.626
X5.1181Y-10.8858
X6.2598Y-3.248
X6.2598Y-5.0197
X6.2598Y-8.2087
X6.378Y-6.437
X6.378Y-9.626
X6.378Y-10.8858
T0
M30
