G04 #@! TF.FileFunction,Soldermask,Top*
%FSLAX46Y46*%
G04 Gerber Fmt 4.6, Leading zero omitted, Abs format (unit mm)*
G04 Created by KiCad (PCBNEW 4.0.2-stable) date 20/06/2016 17:59:36*
%MOMM*%
G01*
G04 APERTURE LIST*
%ADD10C,0.100000*%
%ADD11R,1.620000X1.310000*%
%ADD12R,0.950000X1.900000*%
%ADD13R,1.900000X0.950000*%
%ADD14R,1.600000X1.150000*%
%ADD15R,1.150000X1.600000*%
%ADD16R,2.000200X3.000960*%
%ADD17R,1.600000X1.300000*%
%ADD18C,4.400000*%
%ADD19C,2.200000*%
%ADD20C,2.400000*%
%ADD21R,1.310000X1.620000*%
%ADD22R,2.432000X2.127200*%
%ADD23O,2.432000X2.127200*%
%ADD24C,3.400000*%
%ADD25C,1.600000*%
%ADD26C,3.600000*%
%ADD27C,2.900000*%
G04 APERTURE END LIST*
D10*
D11*
X120000000Y-55000000D03*
X120000000Y-51730000D03*
D12*
X159075000Y-115125000D03*
X159875000Y-115125000D03*
X160675000Y-115125000D03*
X161475000Y-115125000D03*
X162275000Y-115125000D03*
X163075000Y-115125000D03*
X163875000Y-115125000D03*
X164675000Y-115125000D03*
X165475000Y-115125000D03*
X166275000Y-115125000D03*
X167075000Y-115125000D03*
D13*
X168775000Y-113425000D03*
X168775000Y-112625000D03*
X168775000Y-111825000D03*
X168775000Y-111025000D03*
X168775000Y-110225000D03*
X168775000Y-109425000D03*
X168775000Y-108625000D03*
X168775000Y-107825000D03*
X168775000Y-107025000D03*
X168775000Y-106225000D03*
X168775000Y-105425000D03*
D12*
X167075000Y-103725000D03*
X166275000Y-103725000D03*
X165475000Y-103725000D03*
X164675000Y-103725000D03*
X163875000Y-103725000D03*
X163075000Y-103725000D03*
X162275000Y-103725000D03*
X161475000Y-103725000D03*
X160675000Y-103725000D03*
X159875000Y-103725000D03*
X159075000Y-103725000D03*
D13*
X157375000Y-105425000D03*
X157375000Y-106225000D03*
X157375000Y-107025000D03*
X157375000Y-107825000D03*
X157375000Y-108625000D03*
X157375000Y-109425000D03*
X157375000Y-110225000D03*
X157375000Y-111025000D03*
X157375000Y-111825000D03*
X157375000Y-112625000D03*
X157375000Y-113425000D03*
D14*
X154850000Y-107750000D03*
X152950000Y-107750000D03*
X155900000Y-91500000D03*
X157800000Y-91500000D03*
X159950000Y-91500000D03*
X161850000Y-91500000D03*
D15*
X163125000Y-118200000D03*
X163125000Y-120100000D03*
X162300000Y-101400000D03*
X162300000Y-99500000D03*
D16*
X139900000Y-116100000D03*
X139900000Y-119701720D03*
D17*
X168100000Y-97000000D03*
X170300000Y-97000000D03*
D18*
X199650000Y-216000000D03*
D19*
X205000000Y-222840000D03*
X207540000Y-222840000D03*
X210080000Y-222840000D03*
X202460000Y-222840000D03*
X199920000Y-222840000D03*
X199920000Y-209160000D03*
X202460000Y-209160000D03*
X210080000Y-209160000D03*
X207540000Y-209160000D03*
X205000000Y-209160000D03*
D18*
X210350000Y-216000000D03*
X199650000Y-135000000D03*
D19*
X205000000Y-141840000D03*
X207540000Y-141840000D03*
X210080000Y-141840000D03*
X202460000Y-141840000D03*
X199920000Y-141840000D03*
X199920000Y-128160000D03*
X202460000Y-128160000D03*
X210080000Y-128160000D03*
X207540000Y-128160000D03*
X205000000Y-128160000D03*
D18*
X210350000Y-135000000D03*
X205000000Y-95350000D03*
D19*
X211840000Y-90000000D03*
X211840000Y-87460000D03*
X211840000Y-84920000D03*
X211840000Y-92540000D03*
X211840000Y-95080000D03*
X198160000Y-95080000D03*
X198160000Y-92540000D03*
X198160000Y-84920000D03*
X198160000Y-87460000D03*
X198160000Y-90000000D03*
D18*
X205000000Y-84650000D03*
X141000000Y-140350000D03*
D19*
X147840000Y-135000000D03*
X147840000Y-132460000D03*
X147840000Y-129920000D03*
X147840000Y-137540000D03*
X147840000Y-140080000D03*
X134160000Y-140080000D03*
X134160000Y-137540000D03*
X134160000Y-129920000D03*
X134160000Y-132460000D03*
X134160000Y-135000000D03*
D18*
X141000000Y-129650000D03*
X141000000Y-95350000D03*
D19*
X147840000Y-90000000D03*
X147840000Y-87460000D03*
X147840000Y-84920000D03*
X147840000Y-92540000D03*
X147840000Y-95080000D03*
X134160000Y-95080000D03*
X134160000Y-92540000D03*
X134160000Y-84920000D03*
X134160000Y-87460000D03*
X134160000Y-90000000D03*
D18*
X141000000Y-84650000D03*
D20*
X164250000Y-183750000D03*
X164250000Y-188250000D03*
X157750000Y-183750000D03*
X157750000Y-188250000D03*
X189250000Y-218750000D03*
X189250000Y-223250000D03*
X182750000Y-218750000D03*
X182750000Y-223250000D03*
X189250000Y-208750000D03*
X189250000Y-213250000D03*
X182750000Y-208750000D03*
X182750000Y-213250000D03*
X178250000Y-132750000D03*
X178250000Y-137250000D03*
X171750000Y-132750000D03*
X171750000Y-137250000D03*
X178250000Y-87750000D03*
X178250000Y-92250000D03*
X171750000Y-87750000D03*
X171750000Y-92250000D03*
X129250000Y-285750000D03*
X129250000Y-290250000D03*
X122750000Y-285750000D03*
X122750000Y-290250000D03*
X114250000Y-285750000D03*
X114250000Y-290250000D03*
X107750000Y-285750000D03*
X107750000Y-290250000D03*
X129250000Y-275750000D03*
X129250000Y-280250000D03*
X122750000Y-275750000D03*
X122750000Y-280250000D03*
X114250000Y-275750000D03*
X114250000Y-280250000D03*
X107750000Y-275750000D03*
X107750000Y-280250000D03*
X129250000Y-265750000D03*
X129250000Y-270250000D03*
X122750000Y-265750000D03*
X122750000Y-270250000D03*
X114250000Y-265750000D03*
X114250000Y-270250000D03*
X107750000Y-265750000D03*
X107750000Y-270250000D03*
X129250000Y-255750000D03*
X129250000Y-260250000D03*
X122750000Y-255750000D03*
X122750000Y-260250000D03*
X114250000Y-255750000D03*
X114250000Y-260250000D03*
X107750000Y-255750000D03*
X107750000Y-260250000D03*
X129250000Y-245750000D03*
X129250000Y-250250000D03*
X122750000Y-245750000D03*
X122750000Y-250250000D03*
X114250000Y-245750000D03*
X114250000Y-250250000D03*
X107750000Y-245750000D03*
X107750000Y-250250000D03*
X174250000Y-218750000D03*
X174250000Y-223250000D03*
X167750000Y-218750000D03*
X167750000Y-223250000D03*
X174250000Y-208750000D03*
X174250000Y-213250000D03*
X167750000Y-208750000D03*
X167750000Y-213250000D03*
X159250000Y-218750000D03*
X159250000Y-223250000D03*
X152750000Y-218750000D03*
X152750000Y-223250000D03*
X159250000Y-208750000D03*
X159250000Y-213250000D03*
X152750000Y-208750000D03*
X152750000Y-213250000D03*
X144250000Y-218750000D03*
X144250000Y-223250000D03*
X137750000Y-218750000D03*
X137750000Y-223250000D03*
X144250000Y-208750000D03*
X144250000Y-213250000D03*
X137750000Y-208750000D03*
X137750000Y-213250000D03*
X129250000Y-218750000D03*
X129250000Y-223250000D03*
X122750000Y-218750000D03*
X122750000Y-223250000D03*
X129250000Y-208750000D03*
X129250000Y-213250000D03*
X122750000Y-208750000D03*
X122750000Y-213250000D03*
X114250000Y-218750000D03*
X114250000Y-223250000D03*
X107750000Y-218750000D03*
X107750000Y-223250000D03*
X114250000Y-208750000D03*
X114250000Y-213250000D03*
X107750000Y-208750000D03*
X107750000Y-213250000D03*
X144250000Y-183750000D03*
X144250000Y-188250000D03*
X137750000Y-183750000D03*
X137750000Y-188250000D03*
X129250000Y-183750000D03*
X129250000Y-188250000D03*
X122750000Y-183750000D03*
X122750000Y-188250000D03*
X114250000Y-183750000D03*
X114250000Y-188250000D03*
X107750000Y-183750000D03*
X107750000Y-188250000D03*
X114250000Y-132750000D03*
X114250000Y-137250000D03*
X107750000Y-132750000D03*
X107750000Y-137250000D03*
X114250000Y-87750000D03*
X114250000Y-92250000D03*
X107750000Y-87750000D03*
X107750000Y-92250000D03*
X167750000Y-62250000D03*
X167750000Y-57750000D03*
X174250000Y-62250000D03*
X174250000Y-57750000D03*
X174250000Y-47750000D03*
X174250000Y-52250000D03*
X167750000Y-47750000D03*
X167750000Y-52250000D03*
X152750000Y-62250000D03*
X152750000Y-57750000D03*
X159250000Y-62250000D03*
X159250000Y-57750000D03*
X159250000Y-47750000D03*
X159250000Y-52250000D03*
X152750000Y-47750000D03*
X152750000Y-52250000D03*
X137750000Y-62250000D03*
X137750000Y-57750000D03*
X144250000Y-62250000D03*
X144250000Y-57750000D03*
X144250000Y-47750000D03*
X144250000Y-52250000D03*
X137750000Y-47750000D03*
X137750000Y-52250000D03*
X122750000Y-62250000D03*
X122750000Y-57750000D03*
X129250000Y-62250000D03*
X129250000Y-57750000D03*
X129250000Y-47750000D03*
X129250000Y-52250000D03*
X122750000Y-47750000D03*
X122750000Y-52250000D03*
X107750000Y-62250000D03*
X107750000Y-57750000D03*
X114250000Y-62250000D03*
X114250000Y-57750000D03*
X114250000Y-47750000D03*
X114250000Y-52250000D03*
X107750000Y-47750000D03*
X107750000Y-52250000D03*
D11*
X117000000Y-55000000D03*
X117000000Y-58270000D03*
X135000000Y-55000000D03*
X135000000Y-51730000D03*
X132000000Y-55000000D03*
X132000000Y-58270000D03*
X149500000Y-55000000D03*
X149500000Y-51730000D03*
X147000000Y-55000000D03*
X147000000Y-58270000D03*
X164500000Y-55000000D03*
X164500000Y-51730000D03*
X162000000Y-55000000D03*
X162000000Y-58270000D03*
X179500000Y-55000000D03*
X179500000Y-51730000D03*
X177000000Y-55000000D03*
X177000000Y-58270000D03*
X117250000Y-89250000D03*
X117250000Y-92520000D03*
D21*
X119720000Y-137250000D03*
X116450000Y-137250000D03*
D11*
X120150000Y-182500000D03*
X120150000Y-179230000D03*
X117050000Y-182830000D03*
X117050000Y-186100000D03*
X134700000Y-181730000D03*
X134700000Y-185000000D03*
D21*
X153270000Y-90000000D03*
X150000000Y-90000000D03*
X153470000Y-134950000D03*
X150200000Y-134950000D03*
D11*
X147400000Y-181680000D03*
X147400000Y-184950000D03*
D21*
X157700000Y-169700000D03*
X154430000Y-169700000D03*
D11*
X155100000Y-181630000D03*
X155100000Y-184900000D03*
X119500000Y-216000000D03*
X119500000Y-212730000D03*
X117000000Y-216480000D03*
X117000000Y-219750000D03*
X132000000Y-216000000D03*
X132000000Y-212730000D03*
X134500000Y-216000000D03*
X134500000Y-219270000D03*
X150000000Y-216000000D03*
X150000000Y-212730000D03*
X147600000Y-216000000D03*
X147600000Y-219270000D03*
X161700000Y-216000000D03*
X161700000Y-212730000D03*
X164650000Y-216700000D03*
X164650000Y-219970000D03*
X176800000Y-216085000D03*
X176800000Y-212815000D03*
X176800000Y-218750000D03*
X176800000Y-222020000D03*
X117000000Y-247230000D03*
X117000000Y-250500000D03*
X120000000Y-247230000D03*
X120000000Y-250500000D03*
X117000000Y-257000000D03*
X117000000Y-260270000D03*
X120000000Y-257000000D03*
X120000000Y-260270000D03*
X117000000Y-267230000D03*
X117000000Y-270500000D03*
X120000000Y-267230000D03*
X120000000Y-270500000D03*
X117000000Y-277230000D03*
X117000000Y-280500000D03*
X120000000Y-277230000D03*
X120000000Y-280500000D03*
X117000000Y-287230000D03*
X117000000Y-290500000D03*
X120000000Y-287230000D03*
X120000000Y-290500000D03*
X122200000Y-318120000D03*
X122200000Y-314850000D03*
X122625000Y-348415000D03*
X122625000Y-351685000D03*
X146350000Y-305880000D03*
X146350000Y-309150000D03*
X160250000Y-305780000D03*
X160250000Y-309050000D03*
X174400000Y-305530000D03*
X174400000Y-308800000D03*
X146225000Y-324455000D03*
X146225000Y-327725000D03*
X160300000Y-324530000D03*
X160300000Y-327800000D03*
X174550000Y-324375000D03*
X174550000Y-327645000D03*
X146275000Y-343165000D03*
X146275000Y-346435000D03*
X160275000Y-343475000D03*
X160275000Y-346745000D03*
X174275000Y-343240000D03*
X174275000Y-346510000D03*
X168700000Y-89100000D03*
X168700000Y-92370000D03*
X168700000Y-134550000D03*
X168700000Y-137820000D03*
X186100000Y-170270000D03*
X186100000Y-167000000D03*
D21*
X203430000Y-80200000D03*
X206700000Y-80200000D03*
D11*
X205500000Y-147320000D03*
X205500000Y-144050000D03*
D21*
X206980000Y-181700000D03*
X210250000Y-181700000D03*
D11*
X179750000Y-216120000D03*
X179750000Y-212850000D03*
X180050000Y-218750000D03*
X180050000Y-222020000D03*
D21*
X191565000Y-215850000D03*
X194835000Y-215850000D03*
X138750000Y-242400000D03*
X142020000Y-242400000D03*
D11*
X154100000Y-284070000D03*
X154100000Y-280800000D03*
D21*
X168215000Y-243050000D03*
X171485000Y-243050000D03*
D11*
X166800000Y-292300000D03*
X166800000Y-289030000D03*
D21*
X207280000Y-261800000D03*
X210550000Y-261800000D03*
X197230000Y-291900000D03*
X200500000Y-291900000D03*
D11*
X188150000Y-305880000D03*
X188150000Y-309150000D03*
X201350000Y-305730000D03*
X201350000Y-309000000D03*
X204400000Y-305630000D03*
X204400000Y-308900000D03*
X188950000Y-324640000D03*
X188950000Y-327910000D03*
X201550000Y-324475000D03*
X201550000Y-327745000D03*
X204700000Y-324405000D03*
X204700000Y-327675000D03*
X189175000Y-343275000D03*
X189175000Y-346545000D03*
X201450000Y-343400000D03*
X201450000Y-346670000D03*
X204100000Y-343400000D03*
X204100000Y-346670000D03*
D21*
X132000000Y-84500000D03*
X128730000Y-84500000D03*
X132000000Y-95000000D03*
X128730000Y-95000000D03*
D11*
X150500000Y-95000000D03*
X150500000Y-98270000D03*
X150500000Y-85000000D03*
X150500000Y-81730000D03*
D21*
X131750000Y-129750000D03*
X128480000Y-129750000D03*
X134200000Y-143200000D03*
X137470000Y-143200000D03*
X150000000Y-140000000D03*
X153270000Y-140000000D03*
X149900000Y-129900000D03*
X153170000Y-129900000D03*
D11*
X195500000Y-84900000D03*
X195500000Y-81630000D03*
X195100000Y-94470000D03*
X195100000Y-91200000D03*
D21*
X209655000Y-98325000D03*
X212925000Y-98325000D03*
X108300000Y-160900000D03*
X105030000Y-160900000D03*
X209115000Y-82050000D03*
X212385000Y-82050000D03*
X114800000Y-161000000D03*
X118070000Y-161000000D03*
X134270000Y-173500000D03*
X131000000Y-173500000D03*
D11*
X210150000Y-126120000D03*
X210150000Y-122850000D03*
D21*
X199880000Y-125250000D03*
X203150000Y-125250000D03*
X134270000Y-168500000D03*
X131000000Y-168500000D03*
X199350000Y-145050000D03*
X202620000Y-145050000D03*
X166270000Y-173500000D03*
X163000000Y-173500000D03*
X166400000Y-168500000D03*
X163130000Y-168500000D03*
D11*
X210050000Y-145250000D03*
X210050000Y-148520000D03*
D21*
X205435000Y-160800000D03*
X202165000Y-160800000D03*
X210500000Y-160600000D03*
X213770000Y-160600000D03*
D11*
X210200000Y-206970000D03*
X210200000Y-203700000D03*
X200000000Y-205820000D03*
X200000000Y-202550000D03*
D21*
X106230000Y-298000000D03*
X109500000Y-298000000D03*
X112230000Y-298000000D03*
X115500000Y-298000000D03*
D11*
X109500000Y-336270000D03*
X109500000Y-333000000D03*
D21*
X114500000Y-336000000D03*
X117770000Y-336000000D03*
X149800000Y-261800000D03*
X146530000Y-261800000D03*
X140130000Y-261800000D03*
X143400000Y-261800000D03*
X134600000Y-286400000D03*
X131330000Y-286400000D03*
X134600000Y-282000000D03*
X131330000Y-282000000D03*
X178600000Y-264300000D03*
X175330000Y-264300000D03*
X173500000Y-262100000D03*
X170230000Y-262100000D03*
X197870000Y-224350000D03*
X194600000Y-224350000D03*
X210170000Y-225900000D03*
X206900000Y-225900000D03*
D11*
X186050000Y-281485000D03*
X186050000Y-278215000D03*
X186000000Y-286350000D03*
X186000000Y-289620000D03*
D21*
X205470000Y-241800000D03*
X202200000Y-241800000D03*
D11*
X210500000Y-242300000D03*
X210500000Y-239030000D03*
D21*
X205670000Y-273950000D03*
X202400000Y-273950000D03*
D11*
X210550000Y-274320000D03*
X210550000Y-271050000D03*
D22*
X106600000Y-103380000D03*
D23*
X106600000Y-105920000D03*
X106600000Y-108460000D03*
X106600000Y-111000000D03*
X106600000Y-113540000D03*
X106600000Y-116080000D03*
D19*
X112650000Y-110850000D03*
X112650000Y-108350000D03*
X115850000Y-108350000D03*
D24*
X113600000Y-103580000D03*
X113600000Y-115620000D03*
D19*
X115850000Y-110850000D03*
D25*
X157160000Y-95700000D03*
X162040000Y-95700000D03*
D26*
X161000000Y-290000000D03*
X202000000Y-265000000D03*
X159000000Y-233000000D03*
X159000000Y-196000000D03*
X126000000Y-103000000D03*
X111000000Y-196000000D03*
X207000000Y-196000000D03*
X207000000Y-154000000D03*
X111000000Y-154000000D03*
X159000000Y-154000000D03*
X111000000Y-71000000D03*
X207000000Y-54000000D03*
X207000000Y-111000000D03*
X129000000Y-308000000D03*
X207000000Y-233000000D03*
X111000000Y-233000000D03*
X130000000Y-342000000D03*
X203000000Y-336500000D03*
X161000000Y-336500000D03*
D27*
X138399800Y-300100600D03*
X141600200Y-300100600D03*
X138399800Y-315899400D03*
X141600200Y-315899400D03*
X140000000Y-312699000D03*
X140000000Y-303301000D03*
X140000000Y-308000000D03*
X152399800Y-300100600D03*
X155600200Y-300100600D03*
X152399800Y-315899400D03*
X155600200Y-315899400D03*
X154000000Y-312699000D03*
X154000000Y-303301000D03*
X154000000Y-308000000D03*
X166399800Y-300100600D03*
X169600200Y-300100600D03*
X166399800Y-315899400D03*
X169600200Y-315899400D03*
X168000000Y-312699000D03*
X168000000Y-303301000D03*
X168000000Y-308000000D03*
X138399800Y-319100600D03*
X141600200Y-319100600D03*
X138399800Y-334899400D03*
X141600200Y-334899400D03*
X140000000Y-331699000D03*
X140000000Y-322301000D03*
X140000000Y-327000000D03*
X152399800Y-319100600D03*
X155600200Y-319100600D03*
X152399800Y-334899400D03*
X155600200Y-334899400D03*
X154000000Y-331699000D03*
X154000000Y-322301000D03*
X154000000Y-327000000D03*
X166399800Y-319100600D03*
X169600200Y-319100600D03*
X166399800Y-334899400D03*
X169600200Y-334899400D03*
X168000000Y-331699000D03*
X168000000Y-322301000D03*
X168000000Y-327000000D03*
X138399800Y-338100600D03*
X141600200Y-338100600D03*
X138399800Y-353899400D03*
X141600200Y-353899400D03*
X140000000Y-350699000D03*
X140000000Y-341301000D03*
X140000000Y-346000000D03*
X152399800Y-338100600D03*
X155600200Y-338100600D03*
X152399800Y-353899400D03*
X155600200Y-353899400D03*
X154000000Y-350699000D03*
X154000000Y-341301000D03*
X154000000Y-346000000D03*
X166399800Y-338100600D03*
X169600200Y-338100600D03*
X166399800Y-353899400D03*
X169600200Y-353899400D03*
X168000000Y-350699000D03*
X168000000Y-341301000D03*
X168000000Y-346000000D03*
X180399800Y-300100600D03*
X183600200Y-300100600D03*
X180399800Y-315899400D03*
X183600200Y-315899400D03*
X182000000Y-312699000D03*
X182000000Y-303301000D03*
X182000000Y-308000000D03*
X194399800Y-300100600D03*
X197600200Y-300100600D03*
X194399800Y-315899400D03*
X197600200Y-315899400D03*
X196000000Y-312699000D03*
X196000000Y-303301000D03*
X196000000Y-308000000D03*
X208399800Y-300100600D03*
X211600200Y-300100600D03*
X208399800Y-315899400D03*
X211600200Y-315899400D03*
X210000000Y-312699000D03*
X210000000Y-303301000D03*
X210000000Y-308000000D03*
X180399800Y-319100600D03*
X183600200Y-319100600D03*
X180399800Y-334899400D03*
X183600200Y-334899400D03*
X182000000Y-331699000D03*
X182000000Y-322301000D03*
X182000000Y-327000000D03*
X194399800Y-319100600D03*
X197600200Y-319100600D03*
X194399800Y-334899400D03*
X197600200Y-334899400D03*
X196000000Y-331699000D03*
X196000000Y-322301000D03*
X196000000Y-327000000D03*
X208399800Y-319100600D03*
X211600200Y-319100600D03*
X208399800Y-334899400D03*
X211600200Y-334899400D03*
X210000000Y-331699000D03*
X210000000Y-322301000D03*
X210000000Y-327000000D03*
X180399800Y-338100600D03*
X183600200Y-338100600D03*
X180399800Y-353899400D03*
X183600200Y-353899400D03*
X182000000Y-350699000D03*
X182000000Y-341301000D03*
X182000000Y-346000000D03*
X194399800Y-338100600D03*
X197600200Y-338100600D03*
X194399800Y-353899400D03*
X197600200Y-353899400D03*
X196000000Y-350699000D03*
X196000000Y-341301000D03*
X196000000Y-346000000D03*
X208399800Y-338100600D03*
X211600200Y-338100600D03*
X208399800Y-353899400D03*
X211600200Y-353899400D03*
X210000000Y-350699000D03*
X210000000Y-341301000D03*
X210000000Y-346000000D03*
D18*
X117700000Y-171000000D03*
D19*
X112000000Y-163500000D03*
X109500000Y-163500000D03*
X114500000Y-163500000D03*
X114500000Y-178000000D03*
X109500000Y-178000000D03*
D18*
X106300000Y-171000000D03*
X117700000Y-308000000D03*
D19*
X112000000Y-300500000D03*
X109500000Y-300500000D03*
X114500000Y-300500000D03*
X114500000Y-315000000D03*
X109500000Y-315000000D03*
D18*
X106300000Y-308000000D03*
X117700000Y-346000000D03*
D19*
X112000000Y-338500000D03*
X109500000Y-338500000D03*
X114500000Y-338500000D03*
X114500000Y-353000000D03*
X109500000Y-353000000D03*
D18*
X106300000Y-346000000D03*
X138300000Y-252000000D03*
D19*
X144000000Y-259500000D03*
X146500000Y-259500000D03*
X141500000Y-259500000D03*
X141500000Y-245000000D03*
X146500000Y-245000000D03*
D18*
X149700000Y-252000000D03*
X144000000Y-278300000D03*
D19*
X136500000Y-284000000D03*
X136500000Y-286500000D03*
X136500000Y-281500000D03*
X151000000Y-281500000D03*
X151000000Y-286500000D03*
D18*
X144000000Y-289700000D03*
X170300000Y-252000000D03*
D19*
X176000000Y-259500000D03*
X178500000Y-259500000D03*
X173500000Y-259500000D03*
X173500000Y-245000000D03*
X178500000Y-245000000D03*
D18*
X181700000Y-252000000D03*
X176000000Y-289700000D03*
D19*
X183500000Y-284000000D03*
X183500000Y-281500000D03*
X183500000Y-286500000D03*
X169000000Y-286500000D03*
X169000000Y-281500000D03*
D18*
X176000000Y-278300000D03*
X213700000Y-252000000D03*
D19*
X208000000Y-244500000D03*
X205500000Y-244500000D03*
X210500000Y-244500000D03*
X210500000Y-259000000D03*
X205500000Y-259000000D03*
D18*
X202300000Y-252000000D03*
X213700000Y-284000000D03*
D19*
X208000000Y-276500000D03*
X205500000Y-276500000D03*
X210500000Y-276500000D03*
X210500000Y-291000000D03*
X205500000Y-291000000D03*
D18*
X202300000Y-284000000D03*
X144000000Y-165300000D03*
D19*
X136500000Y-171000000D03*
X136500000Y-173500000D03*
X136500000Y-168500000D03*
X151000000Y-168500000D03*
X151000000Y-173500000D03*
D18*
X144000000Y-176700000D03*
X176000000Y-165300000D03*
D19*
X168500000Y-171000000D03*
X168500000Y-173500000D03*
X168500000Y-168500000D03*
X183000000Y-168500000D03*
X183000000Y-173500000D03*
D18*
X176000000Y-176700000D03*
X213700000Y-171000000D03*
D19*
X208000000Y-163500000D03*
X205500000Y-163500000D03*
X210500000Y-163500000D03*
X210500000Y-178000000D03*
X205500000Y-178000000D03*
D18*
X202300000Y-171000000D03*
M02*
