G04 #@! TF.FileFunction,Profile,NP*
%FSLAX46Y46*%
G04 Gerber Fmt 4.6, Leading zero omitted, Abs format (unit mm)*
G04 Created by KiCad (PCBNEW 4.0.2-stable) date 06/07/2016 01:48:23*
%MOMM*%
G01*
G04 APERTURE LIST*
%ADD10C,0.100000*%
%ADD11C,0.150000*%
G04 APERTURE END LIST*
D10*
D11*
X41500000Y-357000000D02*
X41500000Y-30000000D01*
X185500000Y-357000000D02*
X41500000Y-357000000D01*
X185500000Y-30000000D02*
X185500000Y-357000000D01*
X41500000Y-30000000D02*
X185500000Y-30000000D01*
X60000000Y-283000000D02*
X60000000Y-278000000D01*
X70000000Y-278000000D02*
X70000000Y-283000000D01*
X60000000Y-278000000D02*
X70000000Y-278000000D01*
X70000000Y-283000000D02*
X60000000Y-283000000D01*
X85000000Y-283000000D02*
X75000000Y-283000000D01*
X85000000Y-278000000D02*
X85000000Y-283000000D01*
X75000000Y-283000000D02*
X75000000Y-278000000D01*
X75000000Y-278000000D02*
X85000000Y-278000000D01*
X60000000Y-273000000D02*
X60000000Y-268000000D01*
X60000000Y-268000000D02*
X70000000Y-268000000D01*
X70000000Y-258000000D02*
X70000000Y-263000000D01*
X60000000Y-258000000D02*
X70000000Y-258000000D01*
X70000000Y-263000000D02*
X60000000Y-263000000D01*
X70000000Y-273000000D02*
X60000000Y-273000000D01*
X70000000Y-268000000D02*
X70000000Y-273000000D01*
X60000000Y-263000000D02*
X60000000Y-258000000D01*
X85000000Y-273000000D02*
X75000000Y-273000000D01*
X75000000Y-273000000D02*
X75000000Y-268000000D01*
X75000000Y-263000000D02*
X75000000Y-258000000D01*
X75000000Y-258000000D02*
X85000000Y-258000000D01*
X85000000Y-258000000D02*
X85000000Y-263000000D01*
X85000000Y-268000000D02*
X85000000Y-273000000D01*
X75000000Y-268000000D02*
X85000000Y-268000000D01*
X85000000Y-263000000D02*
X75000000Y-263000000D01*
X85000000Y-253000000D02*
X75000000Y-253000000D01*
X60000000Y-253000000D02*
X60000000Y-248000000D01*
X60000000Y-248000000D02*
X70000000Y-248000000D01*
X70000000Y-248000000D02*
X70000000Y-253000000D01*
X85000000Y-248000000D02*
X85000000Y-253000000D01*
X75000000Y-253000000D02*
X75000000Y-248000000D01*
X75000000Y-248000000D02*
X85000000Y-248000000D01*
X70000000Y-253000000D02*
X60000000Y-253000000D01*
X85000000Y-243000000D02*
X75000000Y-243000000D01*
X75000000Y-243000000D02*
X75000000Y-238000000D01*
X75000000Y-238000000D02*
X85000000Y-238000000D01*
X85000000Y-238000000D02*
X85000000Y-243000000D01*
X70000000Y-243000000D02*
X60000000Y-243000000D01*
X60000000Y-238000000D02*
X70000000Y-238000000D01*
X70000000Y-238000000D02*
X70000000Y-243000000D01*
X60000000Y-243000000D02*
X60000000Y-238000000D01*
X145000000Y-216000000D02*
X135000000Y-216000000D01*
X135000000Y-216000000D02*
X135000000Y-211000000D01*
X145000000Y-206000000D02*
X135000000Y-206000000D01*
X135000000Y-211000000D02*
X145000000Y-211000000D01*
X145000000Y-211000000D02*
X145000000Y-216000000D01*
X135000000Y-201000000D02*
X145000000Y-201000000D01*
X145000000Y-201000000D02*
X145000000Y-206000000D01*
X135000000Y-206000000D02*
X135000000Y-201000000D01*
X130000000Y-201000000D02*
X130000000Y-206000000D01*
X120000000Y-206000000D02*
X120000000Y-201000000D01*
X130000000Y-206000000D02*
X120000000Y-206000000D01*
X120000000Y-216000000D02*
X120000000Y-211000000D01*
X120000000Y-211000000D02*
X130000000Y-211000000D01*
X130000000Y-211000000D02*
X130000000Y-216000000D01*
X120000000Y-201000000D02*
X130000000Y-201000000D01*
X130000000Y-216000000D02*
X120000000Y-216000000D01*
X115000000Y-216000000D02*
X105000000Y-216000000D01*
X105000000Y-216000000D02*
X105000000Y-211000000D01*
X115000000Y-206000000D02*
X105000000Y-206000000D01*
X105000000Y-211000000D02*
X115000000Y-211000000D01*
X115000000Y-211000000D02*
X115000000Y-216000000D01*
X105000000Y-201000000D02*
X115000000Y-201000000D01*
X115000000Y-201000000D02*
X115000000Y-206000000D01*
X105000000Y-206000000D02*
X105000000Y-201000000D01*
X100000000Y-201000000D02*
X100000000Y-206000000D01*
X90000000Y-206000000D02*
X90000000Y-201000000D01*
X100000000Y-206000000D02*
X90000000Y-206000000D01*
X90000000Y-216000000D02*
X90000000Y-211000000D01*
X90000000Y-211000000D02*
X100000000Y-211000000D01*
X100000000Y-211000000D02*
X100000000Y-216000000D01*
X90000000Y-201000000D02*
X100000000Y-201000000D01*
X100000000Y-216000000D02*
X90000000Y-216000000D01*
X85000000Y-216000000D02*
X75000000Y-216000000D01*
X85000000Y-201000000D02*
X85000000Y-206000000D01*
X85000000Y-206000000D02*
X75000000Y-206000000D01*
X75000000Y-206000000D02*
X75000000Y-201000000D01*
X75000000Y-216000000D02*
X75000000Y-211000000D01*
X85000000Y-211000000D02*
X85000000Y-216000000D01*
X75000000Y-201000000D02*
X85000000Y-201000000D01*
X75000000Y-211000000D02*
X85000000Y-211000000D01*
X60000000Y-211000000D02*
X70000000Y-211000000D01*
X70000000Y-211000000D02*
X70000000Y-216000000D01*
X70000000Y-216000000D02*
X60000000Y-216000000D01*
X60000000Y-216000000D02*
X60000000Y-211000000D01*
X60000000Y-201000000D02*
X70000000Y-201000000D01*
X70000000Y-201000000D02*
X70000000Y-206000000D01*
X70000000Y-206000000D02*
X60000000Y-206000000D01*
X60000000Y-206000000D02*
X60000000Y-201000000D01*
X110000000Y-181000000D02*
X110000000Y-176000000D01*
X110000000Y-176000000D02*
X120000000Y-176000000D01*
X120000000Y-176000000D02*
X120000000Y-181000000D01*
X120000000Y-181000000D02*
X110000000Y-181000000D01*
X90000000Y-181000000D02*
X90000000Y-176000000D01*
X90000000Y-176000000D02*
X100000000Y-176000000D01*
X100000000Y-176000000D02*
X100000000Y-181000000D01*
X100000000Y-181000000D02*
X90000000Y-181000000D01*
X75000000Y-181000000D02*
X75000000Y-176000000D01*
X75000000Y-176000000D02*
X85000000Y-176000000D01*
X85000000Y-176000000D02*
X85000000Y-181000000D01*
X85000000Y-181000000D02*
X75000000Y-181000000D01*
X60000000Y-181000000D02*
X60000000Y-176000000D01*
X60000000Y-176000000D02*
X70000000Y-176000000D01*
X70000000Y-176000000D02*
X70000000Y-181000000D01*
X70000000Y-181000000D02*
X60000000Y-181000000D01*
X134000000Y-130000000D02*
X124000000Y-130000000D01*
X124000000Y-130000000D02*
X124000000Y-125000000D01*
X124000000Y-125000000D02*
X134000000Y-125000000D01*
X134000000Y-125000000D02*
X134000000Y-130000000D01*
X70000000Y-130000000D02*
X60000000Y-130000000D01*
X60000000Y-130000000D02*
X60000000Y-125000000D01*
X60000000Y-125000000D02*
X70000000Y-125000000D01*
X70000000Y-125000000D02*
X70000000Y-130000000D01*
X134000000Y-80000000D02*
X134000000Y-85000000D01*
X124000000Y-85000000D02*
X124000000Y-80000000D01*
X134000000Y-85000000D02*
X124000000Y-85000000D01*
X124000000Y-80000000D02*
X134000000Y-80000000D01*
X70000000Y-80000000D02*
X70000000Y-85000000D01*
X60000000Y-85000000D02*
X60000000Y-80000000D01*
X70000000Y-85000000D02*
X60000000Y-85000000D01*
X60000000Y-80000000D02*
X70000000Y-80000000D01*
X130000000Y-50000000D02*
X130000000Y-55000000D01*
X115000000Y-55000000D02*
X105000000Y-55000000D01*
X115000000Y-50000000D02*
X115000000Y-55000000D01*
X105000000Y-50000000D02*
X115000000Y-50000000D01*
X120000000Y-50000000D02*
X130000000Y-50000000D01*
X120000000Y-55000000D02*
X120000000Y-50000000D01*
X130000000Y-55000000D02*
X120000000Y-55000000D01*
X105000000Y-55000000D02*
X105000000Y-50000000D01*
X100000000Y-55000000D02*
X90000000Y-55000000D01*
X90000000Y-50000000D02*
X100000000Y-50000000D01*
X90000000Y-55000000D02*
X90000000Y-50000000D01*
X100000000Y-50000000D02*
X100000000Y-55000000D01*
X85000000Y-50000000D02*
X85000000Y-55000000D01*
X75000000Y-50000000D02*
X85000000Y-50000000D01*
X85000000Y-55000000D02*
X75000000Y-55000000D01*
X75000000Y-55000000D02*
X75000000Y-50000000D01*
X60000000Y-50000000D02*
X70000000Y-50000000D01*
X70000000Y-50000000D02*
X70000000Y-55000000D01*
X60000000Y-55000000D02*
X60000000Y-50000000D01*
X70000000Y-55000000D02*
X60000000Y-55000000D01*
X120000000Y-45000000D02*
X120000000Y-40000000D01*
X130000000Y-45000000D02*
X120000000Y-45000000D01*
X130000000Y-40000000D02*
X130000000Y-45000000D01*
X120000000Y-40000000D02*
X130000000Y-40000000D01*
X105000000Y-45000000D02*
X105000000Y-40000000D01*
X100000000Y-45000000D02*
X90000000Y-45000000D01*
X100000000Y-40000000D02*
X100000000Y-45000000D01*
X90000000Y-40000000D02*
X100000000Y-40000000D01*
X105000000Y-40000000D02*
X115000000Y-40000000D01*
X90000000Y-45000000D02*
X90000000Y-40000000D01*
X115000000Y-45000000D02*
X105000000Y-45000000D01*
X115000000Y-40000000D02*
X115000000Y-45000000D01*
X75000000Y-45000000D02*
X75000000Y-40000000D01*
X85000000Y-45000000D02*
X75000000Y-45000000D01*
X85000000Y-40000000D02*
X85000000Y-45000000D01*
X75000000Y-40000000D02*
X85000000Y-40000000D01*
X60000000Y-45000000D02*
X60000000Y-40000000D01*
X70000000Y-45000000D02*
X60000000Y-45000000D01*
X70000000Y-40000000D02*
X70000000Y-45000000D01*
X60000000Y-40000000D02*
X70000000Y-40000000D01*
M02*
