M48
INCH,TZ
T1C0.012
T2C0.020
T3C0.028
T4C0.039
T5C0.040
T6C0.059
T7C0.071
T8C0.091
T9C0.108
%
G90
G05
T1
X41378Y-62717
X42992Y-40709
X43150Y-48976
X43701Y-82087
X43701Y-96850
X43701Y-117323
X44331Y-47913
X46142Y-33268
X46142Y-33268
X46634Y-115079
X46654Y-97335
X46654Y-101181
X46654Y-105209
X46654Y-109146
X46654Y-113083
X47244Y-63386
X47254Y-24606
X47254Y-37402
X47254Y-42756
X47254Y-52165
X47254Y-86024
X47254Y-96654
X47254Y-117323
X48100Y-125817
X48268Y-136457
X49606Y-18799
X49606Y-68307
X49606Y-69488
X49606Y-82185
X49606Y-100197
X49606Y-131102
X51693Y-38689
X51693Y-48189
X52165Y-24409
X52165Y-32283
X52165Y-43071
X52165Y-66339
X52165Y-72835
X52165Y-86024
X52165Y-100591
X52165Y-132283
X53150Y-67815
X53150Y-72343
X53150Y-82185
X53150Y-103543
X53150Y-104134
X53543Y-48465
X53543Y-51673
X53799Y-118789
X54213Y-101496
X56535Y-41535
X56929Y-135079
X57195Y-103071
X57195Y-104646
X57608Y-43425
X57608Y-56378
X57608Y-65827
X57608Y-86142
X57608Y-123071
X57608Y-130551
X58967Y-48740
X58967Y-54173
X58967Y-63307
X58967Y-82126
X58967Y-108031
X58967Y-112283
X58967Y-119370
X58967Y-126850
X58967Y-134242
X59213Y-43701
X59213Y-51654
X59213Y-62677
X59213Y-72283
X59213Y-86142
X59213Y-108583
X59213Y-110079
X59488Y-31654
X59744Y-36220
X59744Y-45866
X60118Y-80197
X60315Y-41850
X60364Y-79921
X60374Y-72362
X60630Y-41850
X60669Y-111220
X60709Y-115079
X61142Y-47283
X61575Y-47283
X61969Y-47283
X62126Y-36890
X62362Y-47283
X62953Y-36890
X63228Y-45945
X63228Y-51850
X63474Y-46168
X63474Y-55315
X63701Y-58484
X63701Y-80197
X63701Y-82165
X63701Y-104055
X63701Y-112087
X63720Y-46382
X63937Y-38543
X64173Y-79921
X64173Y-86142
X64173Y-103189
X64173Y-109724
X64252Y-41535
X64272Y-40276
X64449Y-39173
X64488Y-44528
X64528Y-45945
X64764Y-112087
X67047Y-64163
X67067Y-67323
X67126Y-38701
X67126Y-42756
X67126Y-48976
X67441Y-49291
X67441Y-43081
X67835Y-43396
X67835Y-49528
X67913Y-21654
X68189Y-42441
X68268Y-71508
X68386Y-66841
X68622Y-33937
X68622Y-42165
X68661Y-53032
X68937Y-44055
X69173Y-31654
X70787Y-94882
X70787Y-114921
X70827Y-41535
X71339Y-41811
X71339Y-85087
X71762Y-109547
X72559Y-43701
X72559Y-54409
X72559Y-88642
X72559Y-97087
X72756Y-101654
X72795Y-82165
X72874Y-118789
X73130Y-51870
X73130Y-86122
X73130Y-88917
X73130Y-112264
X73130Y-114587
X73543Y-120425
X73740Y-127811
X73819Y-40827
X74488Y-40276
X74764Y-53514
X74882Y-33691
X74882Y-36417
X74882Y-40000
X75030Y-68307
X75030Y-87165
X75030Y-95217
X75039Y-43386
X75039Y-54882
X75315Y-39724
X75315Y-64163
X75551Y-118789
X75827Y-39449
X77047Y-55295
X77126Y-111299
X77165Y-94114
X77323Y-43071
X77323Y-52165
X77323Y-57539
X77421Y-101969
X77421Y-107854
X77598Y-58484
X77598Y-70098
X77697Y-106732
X77953Y-57992
X77953Y-66240
X79191Y-48366
X79528Y-54862
X79823Y-54114
X80197Y-52146
X80374Y-119409
X80374Y-126909
X81299Y-118780
X81398Y-113760
X81417Y-134370
X81575Y-103701
X82677Y-31535
X83819Y-55295
X83937Y-49331
X84065Y-54409
X84065Y-54409
X84075Y-32303
X84075Y-51870
X84419Y-33937
X84449Y-39409
T2
X44921Y-41969
X45000Y-44646
T3
X61874Y-37677
X63795Y-37677
T4
X42421Y-18799
X42421Y-20571
X42421Y-22736
X42421Y-24508
X42421Y-34547
X42421Y-36319
X42421Y-52264
X42421Y-54035
X42421Y-72343
X42421Y-74114
X42421Y-82185
X42421Y-83957
X42421Y-86122
X42421Y-87894
X42421Y-96752
X42421Y-98524
X42421Y-100689
X42421Y-102461
X42421Y-104626
X42421Y-106398
X42421Y-108563
X42421Y-110335
X42421Y-112500
X42421Y-114272
X43110Y-64370
X43110Y-70079
X43110Y-118307
X43110Y-124016
X43110Y-133268
X43110Y-138976
X44094Y-64370
X44094Y-118307
X44094Y-133268
X44350Y-42657
X44350Y-43642
X44980Y-18799
X44980Y-20571
X44980Y-22736
X44980Y-24508
X44980Y-34547
X44980Y-36319
X44980Y-52264
X44980Y-54035
X44980Y-72343
X44980Y-74114
X44980Y-82185
X44980Y-83957
X44980Y-86122
X44980Y-87894
X44980Y-96752
X44980Y-98524
X44980Y-100689
X44980Y-102461
X44980Y-104626
X44980Y-106398
X44980Y-108563
X44980Y-110335
X44980Y-112500
X44980Y-114272
X45079Y-64370
X45079Y-70079
X45079Y-118307
X45079Y-124016
X45079Y-133268
X45079Y-138976
X45610Y-42657
X45610Y-43642
X48327Y-18799
X48327Y-20571
X48327Y-22736
X48327Y-24508
X48327Y-72343
X48327Y-74114
X48327Y-82185
X48327Y-83957
X48327Y-86122
X48327Y-87894
X48327Y-96752
X48327Y-98524
X48327Y-100689
X48327Y-102461
X48327Y-104626
X48327Y-106398
X48327Y-108563
X48327Y-110335
X48327Y-112500
X48327Y-114272
X50886Y-18799
X50886Y-20571
X50886Y-22736
X50886Y-24508
X50886Y-72343
X50886Y-74114
X50886Y-82185
X50886Y-83957
X50886Y-86122
X50886Y-87894
X50886Y-96752
X50886Y-98524
X50886Y-100689
X50886Y-102461
X50886Y-104626
X50886Y-106398
X50886Y-108563
X50886Y-110335
X50886Y-112500
X50886Y-114272
X52819Y-33433
X52819Y-34433
X52819Y-35433
X52819Y-36433
X52819Y-37433
X52819Y-51150
X52819Y-52150
X52819Y-53150
X52819Y-54150
X52819Y-55150
X53740Y-66339
X53740Y-67323
X53740Y-68307
X53740Y-110827
X53740Y-111811
X53740Y-112795
X54232Y-18799
X54232Y-20571
X54232Y-22736
X54232Y-24508
X54232Y-72343
X54232Y-74114
X54232Y-82185
X54232Y-83957
X54232Y-86122
X54232Y-87894
X55709Y-96457
X55709Y-102165
X56693Y-102165
X56791Y-18799
X56791Y-20571
X56791Y-22736
X56791Y-24508
X56791Y-72343
X56791Y-74114
X56791Y-82185
X56791Y-83957
X56791Y-86122
X56791Y-87894
X57677Y-96457
X57677Y-102165
X58205Y-33433
X58205Y-34433
X58205Y-35433
X58205Y-36433
X58205Y-37433
X58205Y-51150
X58205Y-52150
X58205Y-53150
X58205Y-54150
X58205Y-55150
X59449Y-66339
X59449Y-68307
X59449Y-110827
X59449Y-112795
X60138Y-18799
X60138Y-20571
X60138Y-22736
X60138Y-24508
X60138Y-82185
X60138Y-83957
X60138Y-86122
X60138Y-87894
X62106Y-72343
X62106Y-74114
X62697Y-18799
X62697Y-20571
X62697Y-22736
X62697Y-24508
X62697Y-82185
X62697Y-83957
X62697Y-86122
X62697Y-87894
X64665Y-72343
X64665Y-74114
X66043Y-18799
X66043Y-20571
X66043Y-22736
X66043Y-24508
X66043Y-82185
X66043Y-83957
X66043Y-86122
X66043Y-87894
X66339Y-66339
X66339Y-67323
X66339Y-68307
X66535Y-110827
X66535Y-112795
X67618Y-34547
X67618Y-36319
X67618Y-52264
X67618Y-54035
X68307Y-96457
X68307Y-102165
X68602Y-18799
X68602Y-20571
X68602Y-22736
X68602Y-24508
X68602Y-82185
X68602Y-83957
X68602Y-86122
X68602Y-87894
X69291Y-102165
X70177Y-34547
X70177Y-36319
X70177Y-52264
X70177Y-54035
X70276Y-96457
X70276Y-102165
X71949Y-82185
X71949Y-83957
X71949Y-86122
X71949Y-87894
X72047Y-66339
X72047Y-68307
X72244Y-110827
X72244Y-111811
X72244Y-112795
X74508Y-82185
X74508Y-83957
X74508Y-86122
X74508Y-87894
X78016Y-33433
X78016Y-34433
X78016Y-35433
X78016Y-36433
X78016Y-37433
X78709Y-50457
X78709Y-55843
X78709Y-82346
X78709Y-87732
X79709Y-50457
X79709Y-55843
X79709Y-82346
X79709Y-87732
X80709Y-50457
X80709Y-55843
X80709Y-82346
X80709Y-87732
X80906Y-64370
X80906Y-70079
X80906Y-96260
X80906Y-101969
X80906Y-108858
X80906Y-114567
X81709Y-50457
X81709Y-55843
X81709Y-82346
X81709Y-87732
X81890Y-64370
X81890Y-96260
X81890Y-108858
X82709Y-50457
X82709Y-55843
X82709Y-82346
X82709Y-87732
X82874Y-64370
X82874Y-70079
X82874Y-96260
X82874Y-101969
X82874Y-108858
X82874Y-114567
X83402Y-33433
X83402Y-34433
X83402Y-35433
X83402Y-36433
X83402Y-37433
T5
X41969Y-40701
X41969Y-41701
X41969Y-42701
X41969Y-43701
X41969Y-44701
X41969Y-45701
T6
X54488Y-118150
X54488Y-124370
X54488Y-125630
X54488Y-131850
X54488Y-133110
X54488Y-139330
X55748Y-118150
X55748Y-124370
X55748Y-125630
X55748Y-131850
X55748Y-133110
X55748Y-139330
X60000Y-118150
X60000Y-124370
X60000Y-125630
X60000Y-131850
X60000Y-133110
X60000Y-139330
X61260Y-118150
X61260Y-124370
X61260Y-125630
X61260Y-131850
X61260Y-133110
X61260Y-139330
X65512Y-118150
X65512Y-124370
X65512Y-125630
X65512Y-131850
X65512Y-133110
X65512Y-139330
X66772Y-118150
X66772Y-124370
X66772Y-125630
X66772Y-131850
X66772Y-133110
X66772Y-139330
X71024Y-118150
X71024Y-124370
X71024Y-125630
X71024Y-131850
X71024Y-133110
X71024Y-139330
X72284Y-118150
X72284Y-124370
X72284Y-125630
X72284Y-131850
X72284Y-133110
X72284Y-139330
X76535Y-118150
X76535Y-124370
X76535Y-125630
X76535Y-131850
X76535Y-133110
X76535Y-139330
X77795Y-118150
X77795Y-124370
X77795Y-125630
X77795Y-131850
X77795Y-133110
X77795Y-139330
X82047Y-118150
X82047Y-124370
X82047Y-125630
X82047Y-131850
X82047Y-133110
X82047Y-139330
X83307Y-118150
X83307Y-124370
X83307Y-125630
X83307Y-131850
X83307Y-133110
X83307Y-139330
T7
X55118Y-119410
X55118Y-121260
X55118Y-123110
X55118Y-126890
X55118Y-128740
X55118Y-130590
X55118Y-134370
X55118Y-136220
X55118Y-138070
X60630Y-119410
X60630Y-121260
X60630Y-123110
X60630Y-126890
X60630Y-128740
X60630Y-130590
X60630Y-134370
X60630Y-136220
X60630Y-138070
X66142Y-119410
X66142Y-121260
X66142Y-123110
X66142Y-126890
X66142Y-128740
X66142Y-130590
X66142Y-134370
X66142Y-136220
X66142Y-138070
X71654Y-119410
X71654Y-121260
X71654Y-123110
X71654Y-126890
X71654Y-128740
X71654Y-130590
X71654Y-134370
X71654Y-136220
X71654Y-138070
X77165Y-119410
X77165Y-121260
X77165Y-123110
X77165Y-126890
X77165Y-128740
X77165Y-130590
X77165Y-134370
X77165Y-136220
X77165Y-138070
X82677Y-119410
X82677Y-121260
X82677Y-123110
X82677Y-126890
X82677Y-128740
X82677Y-130590
X82677Y-134370
X82677Y-136220
X82677Y-138070
T8
X44724Y-40780
X44724Y-45520
T9
X41850Y-67323
X41850Y-121260
X41850Y-136220
X46339Y-67323
X46339Y-121260
X46339Y-136220
X54449Y-99213
X55512Y-33327
X55512Y-37539
X55512Y-51043
X55512Y-55256
X56693Y-65079
X56693Y-69567
X56693Y-109567
X56693Y-114055
X58937Y-99213
X67047Y-99213
X69291Y-65079
X69291Y-69567
X69291Y-109567
X69291Y-114055
X71535Y-99213
X78602Y-53150
X78602Y-85039
X79646Y-67323
X79646Y-99213
X79646Y-111811
X80709Y-33327
X80709Y-37539
X82815Y-53150
X82815Y-85039
X84134Y-67323
X84134Y-99213
X84134Y-111811
T0
M30
