G04 #@! TF.FileFunction,Copper,L2,Bot,Signal*
%FSLAX46Y46*%
G04 Gerber Fmt 4.6, Leading zero omitted, Abs format (unit mm)*
G04 Created by KiCad (PCBNEW 4.0.2-stable) date 20/06/2016 17:59:36*
%MOMM*%
G01*
G04 APERTURE LIST*
%ADD10C,0.100000*%
%ADD11C,4.000000*%
%ADD12C,1.800000*%
%ADD13C,2.000000*%
%ADD14R,2.032000X1.727200*%
%ADD15O,2.032000X1.727200*%
%ADD16C,3.000000*%
%ADD17C,1.200000*%
%ADD18C,2.500000*%
%ADD19C,0.600000*%
%ADD20C,1.000000*%
%ADD21C,0.250000*%
%ADD22C,0.500000*%
%ADD23C,0.254000*%
G04 APERTURE END LIST*
D10*
D11*
X199650000Y-216000000D03*
D12*
X205000000Y-222840000D03*
X207540000Y-222840000D03*
X210080000Y-222840000D03*
X202460000Y-222840000D03*
X199920000Y-222840000D03*
X199920000Y-209160000D03*
X202460000Y-209160000D03*
X210080000Y-209160000D03*
X207540000Y-209160000D03*
X205000000Y-209160000D03*
D11*
X210350000Y-216000000D03*
X199650000Y-135000000D03*
D12*
X205000000Y-141840000D03*
X207540000Y-141840000D03*
X210080000Y-141840000D03*
X202460000Y-141840000D03*
X199920000Y-141840000D03*
X199920000Y-128160000D03*
X202460000Y-128160000D03*
X210080000Y-128160000D03*
X207540000Y-128160000D03*
X205000000Y-128160000D03*
D11*
X210350000Y-135000000D03*
X205000000Y-95350000D03*
D12*
X211840000Y-90000000D03*
X211840000Y-87460000D03*
X211840000Y-84920000D03*
X211840000Y-92540000D03*
X211840000Y-95080000D03*
X198160000Y-95080000D03*
X198160000Y-92540000D03*
X198160000Y-84920000D03*
X198160000Y-87460000D03*
X198160000Y-90000000D03*
D11*
X205000000Y-84650000D03*
X141000000Y-140350000D03*
D12*
X147840000Y-135000000D03*
X147840000Y-132460000D03*
X147840000Y-129920000D03*
X147840000Y-137540000D03*
X147840000Y-140080000D03*
X134160000Y-140080000D03*
X134160000Y-137540000D03*
X134160000Y-129920000D03*
X134160000Y-132460000D03*
X134160000Y-135000000D03*
D11*
X141000000Y-129650000D03*
X141000000Y-95350000D03*
D12*
X147840000Y-90000000D03*
X147840000Y-87460000D03*
X147840000Y-84920000D03*
X147840000Y-92540000D03*
X147840000Y-95080000D03*
X134160000Y-95080000D03*
X134160000Y-92540000D03*
X134160000Y-84920000D03*
X134160000Y-87460000D03*
X134160000Y-90000000D03*
D11*
X141000000Y-84650000D03*
D13*
X164250000Y-183750000D03*
X164250000Y-188250000D03*
X157750000Y-183750000D03*
X157750000Y-188250000D03*
X189250000Y-218750000D03*
X189250000Y-223250000D03*
X182750000Y-218750000D03*
X182750000Y-223250000D03*
X189250000Y-208750000D03*
X189250000Y-213250000D03*
X182750000Y-208750000D03*
X182750000Y-213250000D03*
X178250000Y-132750000D03*
X178250000Y-137250000D03*
X171750000Y-132750000D03*
X171750000Y-137250000D03*
X178250000Y-87750000D03*
X178250000Y-92250000D03*
X171750000Y-87750000D03*
X171750000Y-92250000D03*
X129250000Y-285750000D03*
X129250000Y-290250000D03*
X122750000Y-285750000D03*
X122750000Y-290250000D03*
X114250000Y-285750000D03*
X114250000Y-290250000D03*
X107750000Y-285750000D03*
X107750000Y-290250000D03*
X129250000Y-275750000D03*
X129250000Y-280250000D03*
X122750000Y-275750000D03*
X122750000Y-280250000D03*
X114250000Y-275750000D03*
X114250000Y-280250000D03*
X107750000Y-275750000D03*
X107750000Y-280250000D03*
X129250000Y-265750000D03*
X129250000Y-270250000D03*
X122750000Y-265750000D03*
X122750000Y-270250000D03*
X114250000Y-265750000D03*
X114250000Y-270250000D03*
X107750000Y-265750000D03*
X107750000Y-270250000D03*
X129250000Y-255750000D03*
X129250000Y-260250000D03*
X122750000Y-255750000D03*
X122750000Y-260250000D03*
X114250000Y-255750000D03*
X114250000Y-260250000D03*
X107750000Y-255750000D03*
X107750000Y-260250000D03*
X129250000Y-245750000D03*
X129250000Y-250250000D03*
X122750000Y-245750000D03*
X122750000Y-250250000D03*
X114250000Y-245750000D03*
X114250000Y-250250000D03*
X107750000Y-245750000D03*
X107750000Y-250250000D03*
X174250000Y-218750000D03*
X174250000Y-223250000D03*
X167750000Y-218750000D03*
X167750000Y-223250000D03*
X174250000Y-208750000D03*
X174250000Y-213250000D03*
X167750000Y-208750000D03*
X167750000Y-213250000D03*
X159250000Y-218750000D03*
X159250000Y-223250000D03*
X152750000Y-218750000D03*
X152750000Y-223250000D03*
X159250000Y-208750000D03*
X159250000Y-213250000D03*
X152750000Y-208750000D03*
X152750000Y-213250000D03*
X144250000Y-218750000D03*
X144250000Y-223250000D03*
X137750000Y-218750000D03*
X137750000Y-223250000D03*
X144250000Y-208750000D03*
X144250000Y-213250000D03*
X137750000Y-208750000D03*
X137750000Y-213250000D03*
X129250000Y-218750000D03*
X129250000Y-223250000D03*
X122750000Y-218750000D03*
X122750000Y-223250000D03*
X129250000Y-208750000D03*
X129250000Y-213250000D03*
X122750000Y-208750000D03*
X122750000Y-213250000D03*
X114250000Y-218750000D03*
X114250000Y-223250000D03*
X107750000Y-218750000D03*
X107750000Y-223250000D03*
X114250000Y-208750000D03*
X114250000Y-213250000D03*
X107750000Y-208750000D03*
X107750000Y-213250000D03*
X144250000Y-183750000D03*
X144250000Y-188250000D03*
X137750000Y-183750000D03*
X137750000Y-188250000D03*
X129250000Y-183750000D03*
X129250000Y-188250000D03*
X122750000Y-183750000D03*
X122750000Y-188250000D03*
X114250000Y-183750000D03*
X114250000Y-188250000D03*
X107750000Y-183750000D03*
X107750000Y-188250000D03*
X114250000Y-132750000D03*
X114250000Y-137250000D03*
X107750000Y-132750000D03*
X107750000Y-137250000D03*
X114250000Y-87750000D03*
X114250000Y-92250000D03*
X107750000Y-87750000D03*
X107750000Y-92250000D03*
X167750000Y-62250000D03*
X167750000Y-57750000D03*
X174250000Y-62250000D03*
X174250000Y-57750000D03*
X174250000Y-47750000D03*
X174250000Y-52250000D03*
X167750000Y-47750000D03*
X167750000Y-52250000D03*
X152750000Y-62250000D03*
X152750000Y-57750000D03*
X159250000Y-62250000D03*
X159250000Y-57750000D03*
X159250000Y-47750000D03*
X159250000Y-52250000D03*
X152750000Y-47750000D03*
X152750000Y-52250000D03*
X137750000Y-62250000D03*
X137750000Y-57750000D03*
X144250000Y-62250000D03*
X144250000Y-57750000D03*
X144250000Y-47750000D03*
X144250000Y-52250000D03*
X137750000Y-47750000D03*
X137750000Y-52250000D03*
X122750000Y-62250000D03*
X122750000Y-57750000D03*
X129250000Y-62250000D03*
X129250000Y-57750000D03*
X129250000Y-47750000D03*
X129250000Y-52250000D03*
X122750000Y-47750000D03*
X122750000Y-52250000D03*
X107750000Y-62250000D03*
X107750000Y-57750000D03*
X114250000Y-62250000D03*
X114250000Y-57750000D03*
X114250000Y-47750000D03*
X114250000Y-52250000D03*
X107750000Y-47750000D03*
X107750000Y-52250000D03*
D14*
X106600000Y-103380000D03*
D15*
X106600000Y-105920000D03*
X106600000Y-108460000D03*
X106600000Y-111000000D03*
X106600000Y-113540000D03*
X106600000Y-116080000D03*
D12*
X112650000Y-110850000D03*
X112650000Y-108350000D03*
X115850000Y-108350000D03*
D16*
X113600000Y-103580000D03*
X113600000Y-115620000D03*
D12*
X115850000Y-110850000D03*
D17*
X157160000Y-95700000D03*
X162040000Y-95700000D03*
D18*
X138399800Y-300100600D03*
X141600200Y-300100600D03*
X138399800Y-315899400D03*
X141600200Y-315899400D03*
X140000000Y-312699000D03*
X140000000Y-303301000D03*
X140000000Y-308000000D03*
X152399800Y-300100600D03*
X155600200Y-300100600D03*
X152399800Y-315899400D03*
X155600200Y-315899400D03*
X154000000Y-312699000D03*
X154000000Y-303301000D03*
X154000000Y-308000000D03*
X166399800Y-300100600D03*
X169600200Y-300100600D03*
X166399800Y-315899400D03*
X169600200Y-315899400D03*
X168000000Y-312699000D03*
X168000000Y-303301000D03*
X168000000Y-308000000D03*
X138399800Y-319100600D03*
X141600200Y-319100600D03*
X138399800Y-334899400D03*
X141600200Y-334899400D03*
X140000000Y-331699000D03*
X140000000Y-322301000D03*
X140000000Y-327000000D03*
X152399800Y-319100600D03*
X155600200Y-319100600D03*
X152399800Y-334899400D03*
X155600200Y-334899400D03*
X154000000Y-331699000D03*
X154000000Y-322301000D03*
X154000000Y-327000000D03*
X166399800Y-319100600D03*
X169600200Y-319100600D03*
X166399800Y-334899400D03*
X169600200Y-334899400D03*
X168000000Y-331699000D03*
X168000000Y-322301000D03*
X168000000Y-327000000D03*
X138399800Y-338100600D03*
X141600200Y-338100600D03*
X138399800Y-353899400D03*
X141600200Y-353899400D03*
X140000000Y-350699000D03*
X140000000Y-341301000D03*
X140000000Y-346000000D03*
X152399800Y-338100600D03*
X155600200Y-338100600D03*
X152399800Y-353899400D03*
X155600200Y-353899400D03*
X154000000Y-350699000D03*
X154000000Y-341301000D03*
X154000000Y-346000000D03*
X166399800Y-338100600D03*
X169600200Y-338100600D03*
X166399800Y-353899400D03*
X169600200Y-353899400D03*
X168000000Y-350699000D03*
X168000000Y-341301000D03*
X168000000Y-346000000D03*
X180399800Y-300100600D03*
X183600200Y-300100600D03*
X180399800Y-315899400D03*
X183600200Y-315899400D03*
X182000000Y-312699000D03*
X182000000Y-303301000D03*
X182000000Y-308000000D03*
X194399800Y-300100600D03*
X197600200Y-300100600D03*
X194399800Y-315899400D03*
X197600200Y-315899400D03*
X196000000Y-312699000D03*
X196000000Y-303301000D03*
X196000000Y-308000000D03*
X208399800Y-300100600D03*
X211600200Y-300100600D03*
X208399800Y-315899400D03*
X211600200Y-315899400D03*
X210000000Y-312699000D03*
X210000000Y-303301000D03*
X210000000Y-308000000D03*
X180399800Y-319100600D03*
X183600200Y-319100600D03*
X180399800Y-334899400D03*
X183600200Y-334899400D03*
X182000000Y-331699000D03*
X182000000Y-322301000D03*
X182000000Y-327000000D03*
X194399800Y-319100600D03*
X197600200Y-319100600D03*
X194399800Y-334899400D03*
X197600200Y-334899400D03*
X196000000Y-331699000D03*
X196000000Y-322301000D03*
X196000000Y-327000000D03*
X208399800Y-319100600D03*
X211600200Y-319100600D03*
X208399800Y-334899400D03*
X211600200Y-334899400D03*
X210000000Y-331699000D03*
X210000000Y-322301000D03*
X210000000Y-327000000D03*
X180399800Y-338100600D03*
X183600200Y-338100600D03*
X180399800Y-353899400D03*
X183600200Y-353899400D03*
X182000000Y-350699000D03*
X182000000Y-341301000D03*
X182000000Y-346000000D03*
X194399800Y-338100600D03*
X197600200Y-338100600D03*
X194399800Y-353899400D03*
X197600200Y-353899400D03*
X196000000Y-350699000D03*
X196000000Y-341301000D03*
X196000000Y-346000000D03*
X208399800Y-338100600D03*
X211600200Y-338100600D03*
X208399800Y-353899400D03*
X211600200Y-353899400D03*
X210000000Y-350699000D03*
X210000000Y-341301000D03*
X210000000Y-346000000D03*
D11*
X117700000Y-171000000D03*
D12*
X112000000Y-163500000D03*
X109500000Y-163500000D03*
X114500000Y-163500000D03*
X114500000Y-178000000D03*
X109500000Y-178000000D03*
D11*
X106300000Y-171000000D03*
X117700000Y-308000000D03*
D12*
X112000000Y-300500000D03*
X109500000Y-300500000D03*
X114500000Y-300500000D03*
X114500000Y-315000000D03*
X109500000Y-315000000D03*
D11*
X106300000Y-308000000D03*
X117700000Y-346000000D03*
D12*
X112000000Y-338500000D03*
X109500000Y-338500000D03*
X114500000Y-338500000D03*
X114500000Y-353000000D03*
X109500000Y-353000000D03*
D11*
X106300000Y-346000000D03*
X138300000Y-252000000D03*
D12*
X144000000Y-259500000D03*
X146500000Y-259500000D03*
X141500000Y-259500000D03*
X141500000Y-245000000D03*
X146500000Y-245000000D03*
D11*
X149700000Y-252000000D03*
X144000000Y-278300000D03*
D12*
X136500000Y-284000000D03*
X136500000Y-286500000D03*
X136500000Y-281500000D03*
X151000000Y-281500000D03*
X151000000Y-286500000D03*
D11*
X144000000Y-289700000D03*
X170300000Y-252000000D03*
D12*
X176000000Y-259500000D03*
X178500000Y-259500000D03*
X173500000Y-259500000D03*
X173500000Y-245000000D03*
X178500000Y-245000000D03*
D11*
X181700000Y-252000000D03*
X176000000Y-289700000D03*
D12*
X183500000Y-284000000D03*
X183500000Y-281500000D03*
X183500000Y-286500000D03*
X169000000Y-286500000D03*
X169000000Y-281500000D03*
D11*
X176000000Y-278300000D03*
X213700000Y-252000000D03*
D12*
X208000000Y-244500000D03*
X205500000Y-244500000D03*
X210500000Y-244500000D03*
X210500000Y-259000000D03*
X205500000Y-259000000D03*
D11*
X202300000Y-252000000D03*
X213700000Y-284000000D03*
D12*
X208000000Y-276500000D03*
X205500000Y-276500000D03*
X210500000Y-276500000D03*
X210500000Y-291000000D03*
X205500000Y-291000000D03*
D11*
X202300000Y-284000000D03*
X144000000Y-165300000D03*
D12*
X136500000Y-171000000D03*
X136500000Y-173500000D03*
X136500000Y-168500000D03*
X151000000Y-168500000D03*
X151000000Y-173500000D03*
D11*
X144000000Y-176700000D03*
X176000000Y-165300000D03*
D12*
X168500000Y-171000000D03*
X168500000Y-173500000D03*
X168500000Y-168500000D03*
X183000000Y-168500000D03*
X183000000Y-173500000D03*
D11*
X176000000Y-176700000D03*
X213700000Y-171000000D03*
D12*
X208000000Y-163500000D03*
X205500000Y-163500000D03*
X210500000Y-163500000D03*
X210500000Y-178000000D03*
X205500000Y-178000000D03*
D11*
X202300000Y-171000000D03*
D19*
X163700000Y-99500000D03*
X153200000Y-106300000D03*
X163249990Y-102300000D03*
X163900000Y-116700000D03*
X159900000Y-93700000D03*
X157800000Y-93700000D03*
X163200000Y-105500000D03*
X162400000Y-97900000D03*
X154000000Y-106300000D03*
X163800000Y-113100000D03*
X158400000Y-120100000D03*
X157400000Y-120100000D03*
X156400000Y-120100000D03*
X155300000Y-120100000D03*
D20*
X114100000Y-106600000D03*
X114300000Y-113400000D03*
D19*
X173200000Y-107800000D03*
X172500000Y-55000000D03*
X198000000Y-168250000D03*
X198000000Y-147300000D03*
X173400000Y-181630000D03*
X173700000Y-169774999D03*
X174400000Y-134700011D03*
X174300000Y-86200000D03*
X174300000Y-107100000D03*
X181200000Y-106200000D03*
X181200000Y-216120000D03*
X118450000Y-292300000D03*
X118500000Y-257000000D03*
X179800000Y-291900000D03*
X179800000Y-241000000D03*
X179900000Y-105500000D03*
X206750000Y-288950000D03*
X207200000Y-263400000D03*
X154200000Y-292300000D03*
X154100000Y-282500000D03*
X118500000Y-287230000D03*
X118500000Y-277230000D03*
X118500000Y-267230000D03*
X118500000Y-247230000D03*
X187500000Y-103700000D03*
X186800000Y-305880000D03*
X122175000Y-319575000D03*
X122600000Y-346600000D03*
X189200000Y-102300000D03*
X187300000Y-324640000D03*
X143600000Y-105500000D03*
X144600000Y-343100000D03*
X117200000Y-84500000D03*
X117200000Y-84500000D03*
X105100000Y-159300000D03*
X112600000Y-121700000D03*
X111000000Y-298000000D03*
X111000000Y-246000000D03*
X111000000Y-208500000D03*
X120000000Y-161000000D03*
X120025001Y-108600000D03*
X120025001Y-62500000D03*
X120025001Y-95000000D03*
X120025001Y-132500000D03*
X120025001Y-298000000D03*
X120025001Y-245500000D03*
X120025001Y-218500000D03*
X131300000Y-122400000D03*
X131300000Y-98270000D03*
X126000000Y-333000000D03*
X126000000Y-254500000D03*
X126000000Y-208750000D03*
X126000000Y-176500000D03*
X126000000Y-173500000D03*
X126000000Y-47750000D03*
X132500000Y-109400000D03*
X132500000Y-82000000D03*
X132500000Y-168500000D03*
X132500000Y-185000000D03*
X132500000Y-218500000D03*
X132500000Y-255500000D03*
X132500000Y-336000000D03*
X132500000Y-62000000D03*
X136000000Y-123100000D03*
X135000000Y-263000000D03*
X136000000Y-131250000D03*
X135000000Y-172250000D03*
X135000000Y-183750000D03*
X135000000Y-208750000D03*
X135000000Y-264500000D03*
X146325001Y-110300000D03*
X146325001Y-331600000D03*
X146325001Y-312600000D03*
X145274999Y-265800000D03*
X145274999Y-261800000D03*
X146325001Y-218800000D03*
X146325001Y-167200000D03*
X146325001Y-143200000D03*
X149774999Y-123800000D03*
X149774999Y-160800000D03*
X149774999Y-137600000D03*
X149774999Y-208600000D03*
X149774999Y-274400000D03*
X149774999Y-285200000D03*
X149774999Y-303200000D03*
X149774999Y-322200000D03*
X149774999Y-340974999D03*
X150400000Y-159200000D03*
X150400000Y-111000000D03*
X150400000Y-131200000D03*
X150400000Y-183600000D03*
X150400000Y-218800000D03*
X150400000Y-275800000D03*
X150400000Y-279600000D03*
X164500000Y-284700004D03*
X161800000Y-284700000D03*
X175700000Y-80400000D03*
X175100000Y-111900000D03*
X151100000Y-80400000D03*
X161800000Y-208700000D03*
X161800000Y-203700000D03*
X152700000Y-203700000D03*
X161800000Y-264300000D03*
X151750000Y-116500000D03*
X151750000Y-92000000D03*
X153350000Y-183800000D03*
X163000000Y-218800000D03*
X163000000Y-262100000D03*
X163000000Y-278700000D03*
X163000000Y-203000000D03*
X153325010Y-203000000D03*
X184300000Y-111000000D03*
X214425002Y-86200000D03*
X214500000Y-100100000D03*
X213525010Y-138200000D03*
X213525010Y-138200000D03*
X184300000Y-138200000D03*
X182274999Y-278250000D03*
X184300000Y-246600000D03*
X184300000Y-225150000D03*
X184900000Y-208700000D03*
X160600000Y-131700000D03*
X160600000Y-116700000D03*
X213550000Y-82050000D03*
X213550000Y-131750000D03*
X185750000Y-131750000D03*
X185750000Y-225850000D03*
X185750000Y-218750000D03*
X185750000Y-285150000D03*
X185750000Y-291050000D03*
X172300000Y-125800000D03*
X172300000Y-110225000D03*
X190600000Y-110200000D03*
X201145001Y-122850000D03*
X190600000Y-139400000D03*
X202000000Y-139350000D03*
X190575001Y-241850000D03*
X190575001Y-221400000D03*
X190575001Y-173500000D03*
X161225010Y-140500000D03*
X161225010Y-117265687D03*
X213199999Y-125300000D03*
X212900000Y-140450000D03*
X195700000Y-140450000D03*
X196000000Y-239050000D03*
X195900000Y-282700000D03*
X206800000Y-341301000D03*
X171299982Y-125200000D03*
X171300000Y-109425000D03*
X196400000Y-109400000D03*
X196400000Y-132500001D03*
X203700000Y-132450000D03*
X196400000Y-146150000D03*
X196650000Y-259000000D03*
X196650000Y-273950000D03*
X204150000Y-303300000D03*
X204150000Y-322350000D03*
X161800000Y-148550000D03*
X161850020Y-117810265D03*
X197100000Y-148550000D03*
X197100000Y-178050000D03*
X197350000Y-271100000D03*
X170500000Y-98300000D03*
X109600030Y-124400000D03*
X109200000Y-103400000D03*
X170500000Y-124400000D03*
X170500000Y-108600000D03*
X191300000Y-100900000D03*
X191300000Y-162974999D03*
X170300000Y-162974999D03*
X170350000Y-171000000D03*
X190200000Y-92500000D03*
X189900000Y-135924999D03*
X190200000Y-85574990D03*
X190200000Y-101600000D03*
X202750000Y-137450000D03*
X192600000Y-100200000D03*
X191900000Y-301725001D03*
X137700000Y-257800000D03*
X136650000Y-301725001D03*
X184800000Y-258200000D03*
X185100000Y-301725001D03*
X206500000Y-301700000D03*
X210000000Y-80100000D03*
D21*
X144350000Y-93904999D02*
X144400000Y-93854999D01*
D22*
X111000000Y-113020000D02*
X113600000Y-115620000D01*
X111000000Y-113020000D02*
X111000000Y-110000000D01*
X111000000Y-110000000D02*
X112000001Y-108999999D01*
X112000001Y-108999999D02*
X112650000Y-108350000D01*
X112650000Y-108350000D02*
X112650000Y-104530000D01*
X112650000Y-104530000D02*
X113600000Y-103580000D01*
X114300000Y-113400000D02*
X114300000Y-106800000D01*
X114300000Y-106800000D02*
X114100000Y-106600000D01*
D21*
X173200000Y-107375736D02*
X173200000Y-107800000D01*
X173200000Y-87238998D02*
X173200000Y-107375736D01*
X172500000Y-55000000D02*
X172500000Y-86538998D01*
X172500000Y-86538998D02*
X173200000Y-87238998D01*
X198000000Y-147300000D02*
X198000000Y-168250000D01*
X173700000Y-169774999D02*
X173400001Y-170074998D01*
X173400001Y-170074998D02*
X173400001Y-181629999D01*
X173400001Y-181629999D02*
X173400000Y-181630000D01*
X174400000Y-134700011D02*
X173674999Y-135425012D01*
X173674999Y-135425012D02*
X173674999Y-169749998D01*
X173674999Y-169749998D02*
X173700000Y-169774999D01*
X174400000Y-107725002D02*
X174400000Y-134700011D01*
X174300000Y-107100000D02*
X174300000Y-107625002D01*
X174300000Y-107625002D02*
X174400000Y-107725002D01*
X174300000Y-107100000D02*
X174300000Y-86200000D01*
X181200000Y-216120000D02*
X181200000Y-106200000D01*
X118500000Y-278300000D02*
X118500000Y-286500000D01*
X118500000Y-268100000D02*
X118500000Y-278300000D01*
X118500000Y-278300000D02*
X118500000Y-277230000D01*
X118500000Y-256500000D02*
X118500000Y-268100000D01*
X118500000Y-268100000D02*
X118500000Y-267230000D01*
X118500000Y-256500000D02*
X118500000Y-257000000D01*
X118500000Y-247230000D02*
X118500000Y-256500000D01*
X179800000Y-287400000D02*
X179800000Y-291900000D01*
X179800000Y-258986998D02*
X179800000Y-287400000D01*
X179800000Y-241000000D02*
X179800000Y-250458998D01*
X179800000Y-250458998D02*
X179374999Y-250883999D01*
X179374999Y-250883999D02*
X179374999Y-258561997D01*
X179374999Y-258561997D02*
X179800000Y-258986998D01*
X179900000Y-105500000D02*
X179900000Y-240900000D01*
X179900000Y-240900000D02*
X179800000Y-241000000D01*
X206750000Y-288525736D02*
X206750000Y-288950000D01*
X206750000Y-263850000D02*
X206750000Y-288525736D01*
X207200000Y-263400000D02*
X206750000Y-263850000D01*
X154100000Y-282500000D02*
X154100000Y-292200000D01*
X154100000Y-292200000D02*
X154200000Y-292300000D01*
X118500000Y-287230000D02*
X118500000Y-292250000D01*
X118500000Y-287230000D02*
X118500000Y-286500000D01*
X187500000Y-103700000D02*
X187500000Y-204200000D01*
X187500000Y-204200000D02*
X186500000Y-205200000D01*
X186500000Y-205200000D02*
X186500000Y-226400000D01*
X186500000Y-226400000D02*
X187500000Y-227400000D01*
X187500000Y-227400000D02*
X187500000Y-305180000D01*
X187500000Y-305180000D02*
X186800000Y-305880000D01*
X122600000Y-346600000D02*
X122175000Y-346175000D01*
X122175000Y-346175000D02*
X122175000Y-319575000D01*
X187300000Y-324640000D02*
X187950010Y-323989990D01*
X187950010Y-323989990D02*
X187950010Y-223911012D01*
X187950010Y-223911012D02*
X187900000Y-223861002D01*
X187900000Y-223861002D02*
X187900000Y-204436410D01*
X187900000Y-204436410D02*
X189200000Y-203136410D01*
X189200000Y-203136410D02*
X189200000Y-102300000D01*
X143600000Y-105500000D02*
X143600000Y-141191002D01*
X143600000Y-141191002D02*
X141674999Y-143116003D01*
X141674999Y-143116003D02*
X141674999Y-177816001D01*
X141674999Y-177816001D02*
X142725001Y-178866003D01*
X142725001Y-261874999D02*
X141674999Y-262925001D01*
X142725001Y-178866003D02*
X142725001Y-261874999D01*
X141674999Y-262925001D02*
X141674999Y-290816001D01*
X141674999Y-290816001D02*
X144600000Y-293741002D01*
X144600000Y-293741002D02*
X144600000Y-298741002D01*
X144600000Y-298741002D02*
X144600000Y-343100000D01*
X111000000Y-246000000D02*
X111000000Y-293000000D01*
X111000000Y-293000000D02*
X111000000Y-298000000D01*
X117200000Y-103300000D02*
X117200000Y-85700000D01*
X117200000Y-85700000D02*
X117200000Y-50700000D01*
X117200000Y-84500000D02*
X117200000Y-85700000D01*
X117200000Y-50700000D02*
X114250000Y-47750000D01*
X111000000Y-144200000D02*
X111000000Y-123300000D01*
X105100000Y-159300000D02*
X105100000Y-150100000D01*
X105100000Y-150100000D02*
X111000000Y-144200000D01*
X111000000Y-190000000D02*
X111000000Y-168800000D01*
X111000000Y-168800000D02*
X105100000Y-162900000D01*
X105100000Y-162900000D02*
X105100000Y-159300000D01*
X111000000Y-208500000D02*
X111000000Y-202700000D01*
X111000000Y-202700000D02*
X115900000Y-197800000D01*
X115900000Y-197800000D02*
X115900000Y-194900000D01*
X115900000Y-194900000D02*
X111000000Y-190000000D01*
X111000000Y-246000000D02*
X111000000Y-241300000D01*
X111000000Y-241300000D02*
X116600000Y-235700000D01*
X116600000Y-235700000D02*
X116600000Y-229900000D01*
X116600000Y-229900000D02*
X111000000Y-224300000D01*
X111000000Y-224300000D02*
X111000000Y-208500000D01*
X111000000Y-123300000D02*
X112600000Y-121700000D01*
X112600000Y-121700000D02*
X117200000Y-117100000D01*
X117200000Y-117100000D02*
X117200000Y-103300000D01*
X111000000Y-298000000D02*
X111000000Y-299686998D01*
X111000000Y-299686998D02*
X110774999Y-299911999D01*
X110774999Y-299911999D02*
X110774999Y-301274999D01*
X110774999Y-301274999D02*
X111000000Y-301500000D01*
X111000000Y-301500000D02*
X111000000Y-313500000D01*
X111000000Y-313500000D02*
X109500000Y-315000000D01*
X120025001Y-293000000D02*
X120025001Y-298000000D01*
X120025001Y-218500000D02*
X120025001Y-161900000D01*
X120025001Y-161900000D02*
X120025001Y-157500000D01*
X120000000Y-161000000D02*
X120000000Y-161874999D01*
X120000000Y-161874999D02*
X120025001Y-161900000D01*
X120025001Y-157500000D02*
X120025001Y-134525001D01*
X120025001Y-132500000D02*
X120025001Y-108600000D01*
X120025001Y-108600000D02*
X120025001Y-107525001D01*
X120025001Y-95000000D02*
X120025001Y-62500000D01*
X120025001Y-107525001D02*
X120025001Y-95000000D01*
X120025001Y-134525001D02*
X120025001Y-132500000D01*
X120025001Y-298000000D02*
X120025001Y-350974999D01*
X120025001Y-350974999D02*
X111525001Y-350974999D01*
X111525001Y-350974999D02*
X109500000Y-353000000D01*
X120025001Y-293000000D02*
X120025001Y-245500000D01*
X120025001Y-245500000D02*
X120025001Y-218500000D01*
X125300000Y-303400000D02*
X124500000Y-304200000D01*
X125300000Y-303400000D02*
X125300000Y-299000000D01*
X125300000Y-299000000D02*
X126000000Y-298300000D01*
X126000000Y-128000000D02*
X126000000Y-173500000D01*
X131300000Y-122400000D02*
X131300000Y-122824264D01*
X131300000Y-122824264D02*
X126124264Y-128000000D01*
X126124264Y-128000000D02*
X126000000Y-128000000D01*
X131300000Y-98270000D02*
X131300000Y-122400000D01*
X126000000Y-89700000D02*
X126000000Y-92970000D01*
X126000000Y-47750000D02*
X126000000Y-89700000D01*
X126000000Y-92970000D02*
X131300000Y-98270000D01*
X126000000Y-315100000D02*
X126000000Y-333000000D01*
X124500000Y-304200000D02*
X124500000Y-313600000D01*
X124500000Y-313600000D02*
X126000000Y-315100000D01*
X126000000Y-253100000D02*
X126000000Y-298300000D01*
X126000000Y-207700000D02*
X126000000Y-253100000D01*
X126000000Y-176500000D02*
X126000000Y-207700000D01*
X126000000Y-207700000D02*
X126000000Y-208750000D01*
X126000000Y-253100000D02*
X126000000Y-254500000D01*
X126000000Y-173500000D02*
X126000000Y-176500000D01*
X132500000Y-255500000D02*
X132500000Y-302800000D01*
X132500000Y-302800000D02*
X134100000Y-304400000D01*
X134100000Y-304400000D02*
X134100000Y-312700000D01*
X134100000Y-312700000D02*
X132500000Y-314300000D01*
X132500000Y-314300000D02*
X132500000Y-336000000D01*
X132500000Y-86000000D02*
X132500000Y-109400000D01*
X132500000Y-109400000D02*
X132500000Y-168500000D01*
X132500000Y-72000000D02*
X132500000Y-82000000D01*
X132500000Y-82000000D02*
X132500000Y-86000000D01*
X132500000Y-168500000D02*
X132500000Y-185000000D01*
X132500000Y-185000000D02*
X132500000Y-218500000D01*
X132500000Y-218500000D02*
X132500000Y-255500000D01*
X132500000Y-72000000D02*
X132500000Y-62000000D01*
X135000000Y-303000000D02*
X135000000Y-298000000D01*
X135000000Y-303300000D02*
X135000000Y-303600000D01*
X135000000Y-303600000D02*
X135000000Y-322000000D01*
X135300000Y-303300000D02*
X135000000Y-303600000D01*
X138231234Y-303300000D02*
X135300000Y-303300000D01*
X135300000Y-303300000D02*
X135000000Y-303300000D01*
X135000000Y-303000000D02*
X135300000Y-303300000D01*
X135000000Y-303000000D02*
X135000000Y-303300000D01*
X140000000Y-303301000D02*
X138232234Y-303301000D01*
X138232234Y-303301000D02*
X138231234Y-303300000D01*
X135000000Y-322300000D02*
X135000000Y-322600000D01*
X135000000Y-322600000D02*
X135000000Y-337100000D01*
X135300000Y-322400000D02*
X135100000Y-322600000D01*
X135100000Y-322600000D02*
X135000000Y-322600000D01*
X135300000Y-322301000D02*
X135300000Y-322400000D01*
X140000000Y-322301000D02*
X135300000Y-322301000D01*
X135300000Y-322301000D02*
X135001000Y-322301000D01*
X135000000Y-322000000D02*
X135000000Y-322001000D01*
X135000000Y-322001000D02*
X135300000Y-322301000D01*
X135000000Y-322000000D02*
X135000000Y-322300000D01*
X135001000Y-322301000D02*
X135000000Y-322300000D01*
X140000000Y-341301000D02*
X138750001Y-340051001D01*
X138750001Y-340051001D02*
X137951001Y-340051001D01*
X137951001Y-340051001D02*
X135000000Y-337100000D01*
X136000000Y-56500000D02*
X136000000Y-123100000D01*
X136000000Y-123100000D02*
X136000000Y-131250000D01*
X135000000Y-262000000D02*
X135000000Y-263000000D01*
X135000000Y-263000000D02*
X135000000Y-264500000D01*
X136000000Y-131250000D02*
X136000000Y-167186998D01*
X135000000Y-168186998D02*
X135000000Y-172250000D01*
X135000000Y-172250000D02*
X135000000Y-183750000D01*
X135000000Y-183750000D02*
X135000000Y-200000000D01*
X135000000Y-200000000D02*
X135000000Y-208750000D01*
X135000000Y-208750000D02*
X135000000Y-262000000D01*
X135000000Y-264500000D02*
X135000000Y-298000000D01*
X136000000Y-167186998D02*
X135000000Y-168186998D01*
X136000000Y-49500000D02*
X136000000Y-56500000D01*
X137750000Y-47750000D02*
X136000000Y-49500000D01*
X146325001Y-307600000D02*
X146325001Y-312600000D01*
X146325001Y-92500000D02*
X146325001Y-110300000D01*
X146325001Y-110300000D02*
X146325001Y-143200000D01*
X140000000Y-350699000D02*
X146051000Y-350699000D01*
X146051000Y-350699000D02*
X146325001Y-350424999D01*
X146325001Y-312600000D02*
X146325001Y-331600000D01*
X146325001Y-331600000D02*
X146325001Y-350424999D01*
X146325001Y-277183999D02*
X146325001Y-307600000D01*
X145274999Y-261800000D02*
X145274999Y-265800000D01*
X145274999Y-265800000D02*
X145274999Y-276133997D01*
X145274999Y-244411999D02*
X145274999Y-261800000D01*
X146325001Y-167200000D02*
X146325001Y-218800000D01*
X146325001Y-218800000D02*
X146325001Y-243361997D01*
X146325001Y-143200000D02*
X146325001Y-167200000D01*
X146325001Y-64325001D02*
X146325001Y-92500000D01*
X147840000Y-92540000D02*
X146365001Y-92540000D01*
X146365001Y-92540000D02*
X146325001Y-92500000D01*
X144250000Y-62250000D02*
X146325001Y-64325001D01*
X146325001Y-243361997D02*
X145274999Y-244411999D01*
X145274999Y-276133997D02*
X146325001Y-277183999D01*
X149774999Y-298200000D02*
X149774999Y-303200000D01*
X149774999Y-50725001D02*
X149774999Y-123800000D01*
X149774999Y-123800000D02*
X149774999Y-137600000D01*
X149774999Y-160800000D02*
X149774999Y-167275589D01*
X149774999Y-167275589D02*
X149274999Y-167775589D01*
X149274999Y-167775589D02*
X149274999Y-175600000D01*
X149274999Y-175600000D02*
X149774999Y-176100000D01*
X149774999Y-176100000D02*
X149774999Y-208600000D01*
X149774999Y-274400000D02*
X149774999Y-256200000D01*
X147374999Y-250883999D02*
X149774999Y-248483999D01*
X149774999Y-256200000D02*
X147374999Y-253800000D01*
X147374999Y-253800000D02*
X147374999Y-250883999D01*
X149774999Y-248483999D02*
X149774999Y-208600000D01*
X149774999Y-137600000D02*
X149774999Y-160800000D01*
X149774999Y-274400000D02*
X149774999Y-285200000D01*
X149774999Y-285200000D02*
X149774999Y-298200000D01*
X149774999Y-303200000D02*
X149774999Y-322200000D01*
X149774999Y-322200000D02*
X149774999Y-340974999D01*
X152750000Y-47750000D02*
X149774999Y-50725001D01*
X150513002Y-312700000D02*
X150513002Y-288800000D01*
X150513002Y-288800000D02*
X152225001Y-287088001D01*
X152225001Y-287088001D02*
X152225001Y-280911999D01*
X152225001Y-280911999D02*
X150913002Y-279600000D01*
X150913002Y-279600000D02*
X150400000Y-279600000D01*
X150513002Y-347212002D02*
X150513002Y-332000000D01*
X150513002Y-332000000D02*
X150513002Y-331600000D01*
X150900000Y-331699000D02*
X150814002Y-331699000D01*
X150814002Y-331699000D02*
X150513002Y-332000000D01*
X150513002Y-331400000D02*
X150513002Y-313000000D01*
X150513002Y-331600000D02*
X150513002Y-331400000D01*
X154000000Y-331699000D02*
X150900000Y-331699000D01*
X150513002Y-331400000D02*
X150601000Y-331400000D01*
X150900000Y-331699000D02*
X150612002Y-331699000D01*
X150601000Y-331400000D02*
X150900000Y-331699000D01*
X150612002Y-331699000D02*
X150513002Y-331600000D01*
X150513002Y-313000000D02*
X150513002Y-312700000D01*
X150800000Y-312700000D02*
X150800000Y-312713002D01*
X150800000Y-312713002D02*
X150513002Y-313000000D01*
X150513002Y-312500000D02*
X150600000Y-312500000D01*
X150600000Y-312500000D02*
X150800000Y-312700000D01*
X150800000Y-312700000D02*
X150513002Y-312700000D01*
X152231234Y-312700000D02*
X150800000Y-312700000D01*
X150513002Y-312600000D02*
X150513002Y-312500000D01*
X150513002Y-312700000D02*
X150513002Y-312600000D01*
X154000000Y-312699000D02*
X152232234Y-312699000D01*
X152232234Y-312699000D02*
X152231234Y-312700000D01*
X150400000Y-158200000D02*
X150400000Y-159200000D01*
X150400000Y-159200000D02*
X150400000Y-167286998D01*
X150400000Y-131200000D02*
X150400000Y-111000000D01*
X150400000Y-111000000D02*
X150400000Y-62400000D01*
X150400000Y-176000000D02*
X150400000Y-183600000D01*
X150400000Y-167286998D02*
X149774999Y-167911999D01*
X149774999Y-167911999D02*
X149774999Y-175374999D01*
X149774999Y-175374999D02*
X150400000Y-176000000D01*
X150400000Y-158200000D02*
X150400000Y-131200000D01*
X150400000Y-218800000D02*
X150400000Y-183600000D01*
X150400000Y-247400000D02*
X150400000Y-218800000D01*
X150400000Y-279600000D02*
X150400000Y-275800000D01*
X150400000Y-275800000D02*
X150400000Y-254800000D01*
X152025001Y-253200000D02*
X152000000Y-253200000D01*
X152000000Y-253200000D02*
X150400000Y-254800000D01*
X152025001Y-253200000D02*
X152025001Y-249025001D01*
X154000000Y-350699000D02*
X150513002Y-347212002D01*
X152025001Y-249025001D02*
X150400000Y-247400000D01*
X150400000Y-62400000D02*
X150550000Y-62250000D01*
X150550000Y-62250000D02*
X152750000Y-62250000D01*
X164500000Y-284700004D02*
X171175201Y-291375205D01*
X171175201Y-291375205D02*
X171175201Y-296375205D01*
X171175201Y-296375205D02*
X171175201Y-303000000D01*
X161800000Y-208700000D02*
X161800000Y-229500000D01*
X161800000Y-229500000D02*
X163700000Y-231400000D01*
X161800000Y-238200000D02*
X161800000Y-264300000D01*
X163700000Y-231400000D02*
X163700000Y-236300000D01*
X163700000Y-236300000D02*
X161800000Y-238200000D01*
X161800000Y-264300000D02*
X161800000Y-284700000D01*
X171175201Y-322000000D02*
X171175201Y-303600000D01*
X171175201Y-303600000D02*
X171175201Y-303400000D01*
X170900000Y-303301000D02*
X170900000Y-303324799D01*
X170900000Y-303324799D02*
X171175201Y-303600000D01*
X170900000Y-303301000D02*
X171076201Y-303301000D01*
X168000000Y-303301000D02*
X170900000Y-303301000D01*
X171175201Y-303400000D02*
X171175201Y-303000000D01*
X170900000Y-303301000D02*
X170900000Y-303275201D01*
X170900000Y-303275201D02*
X171175201Y-303000000D01*
X171076201Y-303301000D02*
X171175201Y-303400000D01*
X171175201Y-339893565D02*
X171175201Y-322600000D01*
X171175201Y-322600000D02*
X171175201Y-322300000D01*
X170800000Y-322301000D02*
X170876201Y-322301000D01*
X170876201Y-322301000D02*
X171175201Y-322600000D01*
X170800000Y-322301000D02*
X171174201Y-322301000D01*
X168000000Y-322301000D02*
X170800000Y-322301000D01*
X170800000Y-322301000D02*
X170874201Y-322301000D01*
X171175201Y-322300000D02*
X171175201Y-322000000D01*
X170874201Y-322301000D02*
X171175201Y-322000000D01*
X171174201Y-322301000D02*
X171175201Y-322300000D01*
X168000000Y-341301000D02*
X169767766Y-341301000D01*
X169767766Y-341301000D02*
X171175201Y-339893565D01*
X175100000Y-111900000D02*
X175700000Y-111300000D01*
X175700000Y-111300000D02*
X175700000Y-80400000D01*
X151100000Y-80000000D02*
X151100000Y-80550000D01*
X151100000Y-64700000D02*
X151100000Y-80000000D01*
X151100000Y-80550000D02*
X151100000Y-80400000D01*
X151100000Y-80400000D02*
X151100000Y-80250000D01*
X151100000Y-80000000D02*
X151100000Y-80400000D01*
X151100000Y-80550000D02*
X151100000Y-166786998D01*
X167750000Y-47750000D02*
X166335787Y-47750000D01*
X154075001Y-60010786D02*
X154075001Y-62886001D01*
X166335787Y-47750000D02*
X154075001Y-60010786D01*
X154075001Y-62886001D02*
X152261002Y-64700000D01*
X152261002Y-64700000D02*
X151100000Y-64700000D01*
X151100000Y-166786998D02*
X152675010Y-168362008D01*
X152675010Y-168362008D02*
X152675010Y-168400000D01*
X152675010Y-168400000D02*
X152675010Y-173500000D01*
X152675010Y-173500000D02*
X152675010Y-175124990D01*
X151000000Y-173500000D02*
X152675010Y-173500000D01*
X161800000Y-206900000D02*
X161800000Y-208700000D01*
X161800000Y-206900000D02*
X161800000Y-203700000D01*
X152700000Y-200500000D02*
X152700000Y-203700000D01*
X152675010Y-175124990D02*
X152675010Y-200475010D01*
X152675010Y-200475010D02*
X152700000Y-200500000D01*
X163000000Y-278700000D02*
X163000000Y-285100000D01*
X163000000Y-285100000D02*
X165400000Y-287500000D01*
X165400000Y-287500000D02*
X165400000Y-298769398D01*
X165400000Y-298769398D02*
X163569398Y-300600000D01*
X163569398Y-300600000D02*
X163000000Y-300600000D01*
X163000000Y-300600000D02*
X163000000Y-312200000D01*
X163000000Y-312700000D02*
X163000000Y-313100000D01*
X163000000Y-313100000D02*
X163000000Y-326699000D01*
X163400000Y-312700000D02*
X163000000Y-313100000D01*
X163400000Y-312699000D02*
X163400000Y-312700000D01*
X163000000Y-312200000D02*
X163000000Y-312700000D01*
X168000000Y-312699000D02*
X163400000Y-312699000D01*
X163400000Y-312699000D02*
X163001000Y-312699000D01*
X163000000Y-312200000D02*
X163000000Y-312299000D01*
X163000000Y-312299000D02*
X163400000Y-312699000D01*
X163001000Y-312699000D02*
X163000000Y-312700000D01*
X163000000Y-218800000D02*
X163000000Y-230000000D01*
X163000000Y-230000000D02*
X164200000Y-231200000D01*
X164200000Y-231200000D02*
X164200000Y-236500000D01*
X164200000Y-236500000D02*
X163000000Y-237700000D01*
X163000000Y-237700000D02*
X163000000Y-262100000D01*
X163000000Y-326699000D02*
X163500000Y-327199000D01*
X163500000Y-327199000D02*
X168000000Y-331699000D01*
X168000000Y-331699000D02*
X168000000Y-338969998D01*
X168000000Y-338969998D02*
X166424999Y-340544999D01*
X166424999Y-340544999D02*
X166424999Y-349123999D01*
X166424999Y-349123999D02*
X166750001Y-349449001D01*
X166750001Y-349449001D02*
X168000000Y-350699000D01*
X151750000Y-92000000D02*
X151750000Y-116500000D01*
X151750000Y-116500000D02*
X151750000Y-121100000D01*
X151750000Y-121100000D02*
X151750000Y-133200000D01*
X151750000Y-66000000D02*
X151750000Y-92000000D01*
X153350000Y-173900000D02*
X153350000Y-183800000D01*
X153350000Y-183800000D02*
X153350000Y-202975010D01*
X163000000Y-203000000D02*
X163000000Y-218800000D01*
X163000000Y-262100000D02*
X163000000Y-278700000D01*
X153350000Y-202975010D02*
X153325010Y-203000000D01*
X151750000Y-166250000D02*
X153350000Y-167850000D01*
X153350000Y-167850000D02*
X153350000Y-173900000D01*
X151750000Y-133200000D02*
X151750000Y-166250000D01*
X151750000Y-65700000D02*
X151750000Y-66000000D01*
X164300000Y-65700000D02*
X151750000Y-65700000D01*
X167750000Y-62250000D02*
X164300000Y-65700000D01*
X182274999Y-278250000D02*
X182274999Y-297625001D01*
X182274999Y-297625001D02*
X181700000Y-298200000D01*
X181700000Y-298200000D02*
X179300000Y-298200000D01*
X179300000Y-298200000D02*
X177700000Y-299800000D01*
X177700000Y-299800000D02*
X177700000Y-302900000D01*
X184300000Y-111800000D02*
X184300000Y-111500000D01*
X184300000Y-138200000D02*
X184300000Y-111800000D01*
X184300000Y-111800000D02*
X184300000Y-111000000D01*
X214500000Y-86274998D02*
X214425002Y-86200000D01*
X214500000Y-100100000D02*
X214500000Y-86274998D01*
X214650000Y-99950000D02*
X214500000Y-100100000D01*
X214500000Y-103700000D02*
X214500000Y-100100000D01*
X214500000Y-137225010D02*
X214500000Y-103700000D01*
X213525010Y-138200000D02*
X214500000Y-137225010D01*
X184300000Y-138400000D02*
X184300000Y-206800000D01*
X184300000Y-138400000D02*
X184300000Y-138200000D01*
X177700000Y-322300000D02*
X177700000Y-322550000D01*
X177700000Y-322550000D02*
X177700000Y-331450000D01*
X178000000Y-322300000D02*
X177950000Y-322300000D01*
X177950000Y-322300000D02*
X177700000Y-322550000D01*
X177700000Y-321900000D02*
X177700000Y-322300000D01*
X177700000Y-303550000D02*
X177700000Y-321900000D01*
X180231234Y-322300000D02*
X178000000Y-322300000D01*
X178000000Y-322300000D02*
X177700000Y-322300000D01*
X177700000Y-321900000D02*
X177700000Y-322000000D01*
X177700000Y-322000000D02*
X178000000Y-322300000D01*
X182000000Y-322301000D02*
X180232234Y-322301000D01*
X180232234Y-322301000D02*
X180231234Y-322300000D01*
X177700000Y-303300000D02*
X177700000Y-303550000D01*
X178050000Y-303300000D02*
X177950000Y-303300000D01*
X177950000Y-303300000D02*
X177700000Y-303550000D01*
X180231234Y-303300000D02*
X178050000Y-303300000D01*
X178050000Y-303300000D02*
X177700000Y-303300000D01*
X177700000Y-302900000D02*
X177700000Y-302950000D01*
X177700000Y-302950000D02*
X178050000Y-303300000D01*
X177700000Y-302900000D02*
X177700000Y-303300000D01*
X182000000Y-303301000D02*
X180232234Y-303301000D01*
X180232234Y-303301000D02*
X180231234Y-303300000D01*
X182274999Y-254866003D02*
X182274999Y-278250000D01*
X184300000Y-225150000D02*
X184300000Y-246600000D01*
X184300000Y-246600000D02*
X184300000Y-252841002D01*
X184300000Y-215850000D02*
X184300000Y-225150000D01*
X184900000Y-207400000D02*
X184900000Y-208700000D01*
X184900000Y-208700000D02*
X184900000Y-215250000D01*
X182750000Y-208750000D02*
X184850000Y-208750000D01*
X184850000Y-208750000D02*
X184900000Y-208700000D01*
X184300000Y-206800000D02*
X184900000Y-207400000D01*
X184900000Y-215250000D02*
X184300000Y-215850000D01*
X184300000Y-252841002D02*
X182274999Y-254866003D01*
X177681234Y-331468766D02*
X177681234Y-338750000D01*
X177700000Y-331450000D02*
X177681234Y-331468766D01*
X177681234Y-338750000D02*
X180232234Y-341301000D01*
X180232234Y-341301000D02*
X182000000Y-341301000D01*
X185750000Y-312250000D02*
X185750000Y-307250000D01*
X185750000Y-131750000D02*
X185750000Y-219500000D01*
X185750000Y-219500000D02*
X185750000Y-224700000D01*
X185750000Y-218750000D02*
X185750000Y-219500000D01*
X185750000Y-224700000D02*
X185750000Y-225850000D01*
X185750000Y-285150000D02*
X185750000Y-226700000D01*
X185750000Y-226700000D02*
X185750000Y-225850000D01*
X160600000Y-116700000D02*
X160600000Y-131700000D01*
X213550000Y-82474264D02*
X213550000Y-82050000D01*
X213550000Y-86200004D02*
X213550000Y-82474264D01*
X213849999Y-86500003D02*
X213550000Y-86200004D01*
X213849999Y-131450001D02*
X213849999Y-86500003D01*
X213550000Y-131750000D02*
X213849999Y-131450001D01*
X185750000Y-291050000D02*
X185750000Y-285150000D01*
X185750000Y-307250000D02*
X185750000Y-291050000D01*
X185750000Y-331450000D02*
X185750000Y-313050000D01*
X185750000Y-313050000D02*
X185750000Y-312650000D01*
X185350000Y-312650000D02*
X185750000Y-313050000D01*
X185250000Y-312650000D02*
X185750000Y-312650000D01*
X183816766Y-312650000D02*
X185250000Y-312650000D01*
X185750000Y-312650000D02*
X185750000Y-312250000D01*
X185250000Y-312650000D02*
X185350000Y-312650000D01*
X185350000Y-312650000D02*
X185750000Y-312250000D01*
X182000000Y-312699000D02*
X183767766Y-312699000D01*
X183767766Y-312699000D02*
X183816766Y-312650000D01*
X185750000Y-346900000D02*
X185750000Y-332150000D01*
X185750000Y-332150000D02*
X185750000Y-331750000D01*
X185350000Y-331750000D02*
X185750000Y-332150000D01*
X185350000Y-331750000D02*
X185750000Y-331750000D01*
X183818766Y-331750000D02*
X185350000Y-331750000D01*
X185750000Y-331750000D02*
X185750000Y-331450000D01*
X185350000Y-331750000D02*
X185450000Y-331750000D01*
X185450000Y-331750000D02*
X185750000Y-331450000D01*
X182000000Y-331699000D02*
X183767766Y-331699000D01*
X183767766Y-331699000D02*
X183818766Y-331750000D01*
X185175201Y-347474799D02*
X185750000Y-346900000D01*
X183300999Y-349449001D02*
X185175201Y-347574799D01*
X185175201Y-347574799D02*
X185175201Y-347474799D01*
X182000000Y-350699000D02*
X183249999Y-349449001D01*
X183249999Y-349449001D02*
X183300999Y-349449001D01*
X190575001Y-297950000D02*
X190575001Y-302950000D01*
X172300000Y-110225000D02*
X172300000Y-125800000D01*
X190600000Y-139400000D02*
X190600000Y-110200000D01*
X201145001Y-120521001D02*
X201145001Y-122850000D01*
X201145001Y-122850000D02*
X201145001Y-128748001D01*
X190600000Y-139400000D02*
X190600000Y-139824264D01*
X190600000Y-139824264D02*
X190575001Y-139849263D01*
X190575001Y-139849263D02*
X190575001Y-141624999D01*
X201145001Y-128748001D02*
X202000000Y-129603000D01*
X202000000Y-129603000D02*
X202000000Y-139350000D01*
X190575001Y-321950000D02*
X190575001Y-303600000D01*
X190575001Y-303600000D02*
X190575001Y-303350000D01*
X190850000Y-303350000D02*
X190825001Y-303350000D01*
X190825001Y-303350000D02*
X190575001Y-303600000D01*
X190850000Y-303350000D02*
X190575001Y-303350000D01*
X194183234Y-303350000D02*
X190850000Y-303350000D01*
X190575001Y-303350000D02*
X190575001Y-302950000D01*
X190575001Y-297950000D02*
X190575001Y-241850000D01*
X190850000Y-303350000D02*
X190850000Y-303224999D01*
X190850000Y-303224999D02*
X190575001Y-302950000D01*
X190575001Y-336575001D02*
X190575001Y-322650000D01*
X190575001Y-322650000D02*
X190575001Y-322350000D01*
X190900000Y-322350000D02*
X190875001Y-322350000D01*
X190875001Y-322350000D02*
X190575001Y-322650000D01*
X190575001Y-322350000D02*
X190575001Y-321950000D01*
X194183234Y-322350000D02*
X190900000Y-322350000D01*
X190900000Y-322350000D02*
X190575001Y-322350000D01*
X190575001Y-321950000D02*
X190575001Y-322025001D01*
X190575001Y-322025001D02*
X190900000Y-322350000D01*
X196000000Y-303301000D02*
X194232234Y-303301000D01*
X194232234Y-303301000D02*
X194183234Y-303350000D01*
X196000000Y-322301000D02*
X194232234Y-322301000D01*
X194232234Y-322301000D02*
X194183234Y-322350000D01*
X190575001Y-241850000D02*
X190575001Y-221400000D01*
X190575001Y-221400000D02*
X190575001Y-173500000D01*
X190575001Y-173500000D02*
X190575001Y-141624999D01*
X191600000Y-337600000D02*
X190575001Y-336575001D01*
X191600000Y-339500000D02*
X191600000Y-337600000D01*
X192151001Y-340051001D02*
X191600000Y-339500000D01*
X196000000Y-341301000D02*
X194750001Y-340051001D01*
X194750001Y-340051001D02*
X192151001Y-340051001D01*
X195900000Y-282700000D02*
X195900000Y-286086410D01*
X195900000Y-286086410D02*
X199899000Y-290085410D01*
X199899000Y-290085410D02*
X199899000Y-307350000D01*
X199899000Y-307350000D02*
X199899000Y-312350000D01*
X197700000Y-331699000D02*
X198400000Y-331699000D01*
X196000000Y-331699000D02*
X197700000Y-331699000D01*
X197568598Y-332530402D02*
X198099000Y-332000000D01*
X198099000Y-332000000D02*
X198400000Y-331699000D01*
X197700000Y-331699000D02*
X197798000Y-331699000D01*
X197798000Y-331699000D02*
X198099000Y-332000000D01*
X196025199Y-338926199D02*
X197699000Y-340600000D01*
X196000000Y-350699000D02*
X196000000Y-348931234D01*
X196000000Y-348931234D02*
X197699000Y-347232234D01*
X197699000Y-347232234D02*
X197699000Y-340600000D01*
X199899000Y-330200000D02*
X199899000Y-313000000D01*
X198400000Y-331699000D02*
X199899000Y-330200000D01*
X197568598Y-332600000D02*
X196025199Y-334143399D01*
X197668598Y-332500000D02*
X197568598Y-332600000D01*
X197568598Y-332600000D02*
X197568598Y-332530402D01*
X196025199Y-334143399D02*
X196025199Y-338926199D01*
X161225010Y-117265687D02*
X161225010Y-140500000D01*
X212900000Y-125599999D02*
X213199999Y-125300000D01*
X212900000Y-140450000D02*
X212900000Y-125599999D01*
X199600000Y-312701000D02*
X199899000Y-313000000D01*
X199899000Y-313000000D02*
X199899000Y-312700000D01*
X199600000Y-312699000D02*
X199600000Y-312701000D01*
X199600000Y-312699000D02*
X199898000Y-312699000D01*
X196000000Y-312699000D02*
X199600000Y-312699000D01*
X199899000Y-312700000D02*
X199899000Y-312350000D01*
X199600000Y-312699000D02*
X199600000Y-312649000D01*
X199600000Y-312649000D02*
X199899000Y-312350000D01*
X195750000Y-212500000D02*
X195700000Y-212450000D01*
X195700000Y-212450000D02*
X195700000Y-140450000D01*
X196000000Y-239050000D02*
X196000000Y-227550000D01*
X196000000Y-227550000D02*
X195750000Y-227300000D01*
X195750000Y-227300000D02*
X195750000Y-212500000D01*
X213199999Y-125300000D02*
X213199999Y-93899999D01*
X213199999Y-93899999D02*
X213065001Y-93765001D01*
X213065001Y-93765001D02*
X211840000Y-92540000D01*
X196000000Y-262900000D02*
X196000000Y-239050000D01*
X195900000Y-282700000D02*
X195900000Y-263000000D01*
X199898000Y-312699000D02*
X199899000Y-312700000D01*
X195900000Y-263000000D02*
X196000000Y-262900000D01*
X196650000Y-273950000D02*
X196650000Y-286200000D01*
X196650000Y-286200000D02*
X204150000Y-293700000D01*
X204150000Y-293700000D02*
X204150000Y-298700000D01*
X204150000Y-298700000D02*
X204150000Y-303300000D01*
X206824799Y-338975201D02*
X206800000Y-339000000D01*
X206800000Y-339000000D02*
X206800000Y-341301000D01*
X204150000Y-331850000D02*
X206824799Y-334524799D01*
X206824799Y-334524799D02*
X206824799Y-338975201D01*
X204150000Y-322350000D02*
X204150000Y-331800000D01*
X204150000Y-331800000D02*
X204150000Y-331850000D01*
X196400000Y-146150000D02*
X196400000Y-217650000D01*
X196400000Y-217650000D02*
X196650000Y-217900000D01*
X196650000Y-217900000D02*
X196650000Y-235950000D01*
X196650000Y-235950000D02*
X196650000Y-259000000D01*
X171300000Y-125200018D02*
X171299982Y-125200000D01*
X171300000Y-125300000D02*
X171300000Y-125200018D01*
X171300000Y-109425000D02*
X171300000Y-125300000D01*
X171300000Y-125099996D02*
X171300000Y-125300000D01*
X196400000Y-132500001D02*
X196400000Y-109400000D01*
X196400000Y-146150000D02*
X196400000Y-132500001D01*
X203700000Y-120536000D02*
X203700000Y-132450000D01*
X196650000Y-273950000D02*
X196650000Y-259000000D01*
X204150000Y-322350000D02*
X204150000Y-303300000D01*
X205001000Y-293251000D02*
X205001000Y-298251000D01*
X205001000Y-298251000D02*
X205001000Y-312300000D01*
X205500000Y-292752000D02*
X205001000Y-293251000D01*
X205001000Y-329100000D02*
X205001000Y-313000000D01*
X205300000Y-312701000D02*
X205001000Y-313000000D01*
X205001000Y-313000000D02*
X205001000Y-312700000D01*
X205300000Y-312699000D02*
X205300000Y-312701000D01*
X205001000Y-312700000D02*
X205001000Y-312300000D01*
X205001000Y-312300000D02*
X205001000Y-312400000D01*
X210000000Y-312699000D02*
X205300000Y-312699000D01*
X205300000Y-312699000D02*
X205002000Y-312699000D01*
X205001000Y-312400000D02*
X205300000Y-312699000D01*
X205002000Y-312699000D02*
X205001000Y-312700000D01*
X208000000Y-332168598D02*
X209974801Y-334143399D01*
X208000000Y-332168598D02*
X208000000Y-331931234D01*
X207600000Y-331768598D02*
X208000000Y-332168598D01*
X208000000Y-331931234D02*
X208162636Y-331768598D01*
X205001000Y-329169598D02*
X207600000Y-331768598D01*
X210000000Y-331699000D02*
X208232234Y-331699000D01*
X208232234Y-331699000D02*
X208162636Y-331768598D01*
X208162636Y-331768598D02*
X207600000Y-331768598D01*
X205001000Y-329100000D02*
X205001000Y-329169598D01*
X209974801Y-334143399D02*
X209974801Y-338995197D01*
X209974801Y-338995197D02*
X208424999Y-340544999D01*
X208424999Y-340544999D02*
X208424999Y-349123999D01*
X208424999Y-349123999D02*
X208750001Y-349449001D01*
X208750001Y-349449001D02*
X210000000Y-350699000D01*
X161850020Y-117810265D02*
X161850020Y-148499980D01*
X161850020Y-148499980D02*
X161800000Y-148550000D01*
X197100000Y-178050000D02*
X197100000Y-148550000D01*
X197100000Y-216891002D02*
X197100000Y-178050000D01*
X197350000Y-285600000D02*
X197350000Y-271100000D01*
X197350000Y-271100000D02*
X197350000Y-217141002D01*
X205500000Y-292752000D02*
X205500000Y-291000000D01*
X197350000Y-217141002D02*
X197100000Y-216891002D01*
X205001000Y-293251000D02*
X197350000Y-285600000D01*
X170500000Y-108600000D02*
X170500000Y-98300000D01*
X109300031Y-124100001D02*
X109600030Y-124400000D01*
X109200000Y-123999970D02*
X109300031Y-124100001D01*
X109200000Y-103400000D02*
X109200000Y-123999970D01*
X170500000Y-124300000D02*
X170500000Y-124400000D01*
X170500000Y-108600000D02*
X170500000Y-124300000D01*
X208000000Y-163500000D02*
X208000000Y-187300000D01*
X202460000Y-209160000D02*
X202460000Y-192840000D01*
X202460000Y-192840000D02*
X208000000Y-187300000D01*
X191300000Y-162974999D02*
X191300000Y-100900000D01*
X202460000Y-209160000D02*
X202460000Y-217760000D01*
X202460000Y-217760000D02*
X207540000Y-222840000D01*
X170350000Y-171000000D02*
X170350000Y-163024999D01*
X170350000Y-163024999D02*
X170300000Y-162974999D01*
X190200000Y-101600000D02*
X190200000Y-92500000D01*
X190200000Y-92500000D02*
X190200000Y-85574990D01*
X190200000Y-101600000D02*
X189900001Y-101899999D01*
X189900001Y-101899999D02*
X189900001Y-135924998D01*
X189900001Y-135924998D02*
X189900000Y-135924999D01*
X202750000Y-137450000D02*
X207140000Y-141840000D01*
X207140000Y-141840000D02*
X207540000Y-141840000D01*
X202750000Y-137450000D02*
X202750000Y-128450000D01*
X202750000Y-128450000D02*
X202460000Y-128160000D01*
X208000000Y-276500000D02*
X208000000Y-288650000D01*
X208000000Y-288650000D02*
X206824799Y-289825201D01*
X206824799Y-289825201D02*
X206824799Y-301375201D01*
X206824799Y-301375201D02*
X206500000Y-301700000D01*
X192600000Y-100200000D02*
X192600000Y-301025001D01*
X192600000Y-301025001D02*
X191900000Y-301725001D01*
X183500000Y-284000000D02*
X184725001Y-285225001D01*
X184725001Y-285225001D02*
X184725001Y-298894399D01*
X184725001Y-298894399D02*
X185175201Y-299344599D01*
X185175201Y-299344599D02*
X185175201Y-301649800D01*
X185175201Y-301649800D02*
X185100000Y-301725001D01*
X136500000Y-284000000D02*
X137725001Y-285225001D01*
X137725001Y-285225001D02*
X137725001Y-298056059D01*
X137725001Y-298056059D02*
X136650000Y-299131060D01*
X136650000Y-299131060D02*
X136650000Y-301725001D01*
X137725001Y-265774999D02*
X137725001Y-257825001D01*
X137725001Y-257825001D02*
X137700000Y-257800000D01*
X136500000Y-284000000D02*
X137725001Y-282774999D01*
X137725001Y-282774999D02*
X137725001Y-265774999D01*
X184800000Y-258624264D02*
X184800000Y-258200000D01*
X184800000Y-282700000D02*
X184800000Y-258624264D01*
X183500000Y-284000000D02*
X184800000Y-282700000D01*
X208000000Y-276500000D02*
X208000000Y-275227208D01*
X208000000Y-275227208D02*
X208000000Y-244500000D01*
X112000000Y-338500000D02*
X112000000Y-300500000D01*
X210000000Y-80100000D02*
X210000000Y-88160000D01*
X210000000Y-88160000D02*
X211840000Y-90000000D01*
D23*
G36*
X164473000Y-91152606D02*
X164473000Y-93900000D01*
X164483006Y-93949410D01*
X164510197Y-93989803D01*
X165510197Y-94989803D01*
X165552211Y-95017666D01*
X165600000Y-95027000D01*
X168947394Y-95027000D01*
X169873000Y-95952606D01*
X169873000Y-97604769D01*
X169707808Y-97769673D01*
X169565162Y-98113201D01*
X169564838Y-98485167D01*
X169706883Y-98828943D01*
X169740000Y-98862118D01*
X169740000Y-108037537D01*
X169707808Y-108069673D01*
X169565162Y-108413201D01*
X169564838Y-108785167D01*
X169706883Y-109128943D01*
X169740000Y-109162118D01*
X169740000Y-120580394D01*
X168947394Y-121373000D01*
X162610020Y-121373000D01*
X162610020Y-118372728D01*
X162642212Y-118340592D01*
X162784858Y-117997064D01*
X162785182Y-117625098D01*
X162643137Y-117281322D01*
X162380347Y-117018073D01*
X162083426Y-116894780D01*
X162018127Y-116736744D01*
X161755337Y-116473495D01*
X161468944Y-116354574D01*
X161393117Y-116171057D01*
X161130327Y-115907808D01*
X160786799Y-115765162D01*
X160414833Y-115764838D01*
X160071057Y-115906883D01*
X159807808Y-116169673D01*
X159665162Y-116513201D01*
X159664838Y-116885167D01*
X159806883Y-117228943D01*
X159840000Y-117262118D01*
X159840000Y-121373000D01*
X153152606Y-121373000D01*
X152927000Y-121147394D01*
X152927000Y-95944579D01*
X155924786Y-95944579D01*
X156112408Y-96398657D01*
X156459515Y-96746371D01*
X156913266Y-96934785D01*
X157404579Y-96935214D01*
X157858657Y-96747592D01*
X158206371Y-96400485D01*
X158394785Y-95946734D01*
X158394786Y-95944579D01*
X160804786Y-95944579D01*
X160992408Y-96398657D01*
X161339515Y-96746371D01*
X161793266Y-96934785D01*
X162284579Y-96935214D01*
X162738657Y-96747592D01*
X163086371Y-96400485D01*
X163274785Y-95946734D01*
X163275214Y-95455421D01*
X163087592Y-95001343D01*
X162740485Y-94653629D01*
X162286734Y-94465215D01*
X161795421Y-94464786D01*
X161341343Y-94652408D01*
X160993629Y-94999515D01*
X160805215Y-95453266D01*
X160804786Y-95944579D01*
X158394786Y-95944579D01*
X158395214Y-95455421D01*
X158207592Y-95001343D01*
X157860485Y-94653629D01*
X157406734Y-94465215D01*
X156915421Y-94464786D01*
X156461343Y-94652408D01*
X156113629Y-94999515D01*
X155925215Y-95453266D01*
X155924786Y-95944579D01*
X152927000Y-95944579D01*
X152927000Y-91152606D01*
X153852606Y-90227000D01*
X163547394Y-90227000D01*
X164473000Y-91152606D01*
X164473000Y-91152606D01*
G37*
X164473000Y-91152606D02*
X164473000Y-93900000D01*
X164483006Y-93949410D01*
X164510197Y-93989803D01*
X165510197Y-94989803D01*
X165552211Y-95017666D01*
X165600000Y-95027000D01*
X168947394Y-95027000D01*
X169873000Y-95952606D01*
X169873000Y-97604769D01*
X169707808Y-97769673D01*
X169565162Y-98113201D01*
X169564838Y-98485167D01*
X169706883Y-98828943D01*
X169740000Y-98862118D01*
X169740000Y-108037537D01*
X169707808Y-108069673D01*
X169565162Y-108413201D01*
X169564838Y-108785167D01*
X169706883Y-109128943D01*
X169740000Y-109162118D01*
X169740000Y-120580394D01*
X168947394Y-121373000D01*
X162610020Y-121373000D01*
X162610020Y-118372728D01*
X162642212Y-118340592D01*
X162784858Y-117997064D01*
X162785182Y-117625098D01*
X162643137Y-117281322D01*
X162380347Y-117018073D01*
X162083426Y-116894780D01*
X162018127Y-116736744D01*
X161755337Y-116473495D01*
X161468944Y-116354574D01*
X161393117Y-116171057D01*
X161130327Y-115907808D01*
X160786799Y-115765162D01*
X160414833Y-115764838D01*
X160071057Y-115906883D01*
X159807808Y-116169673D01*
X159665162Y-116513201D01*
X159664838Y-116885167D01*
X159806883Y-117228943D01*
X159840000Y-117262118D01*
X159840000Y-121373000D01*
X153152606Y-121373000D01*
X152927000Y-121147394D01*
X152927000Y-95944579D01*
X155924786Y-95944579D01*
X156112408Y-96398657D01*
X156459515Y-96746371D01*
X156913266Y-96934785D01*
X157404579Y-96935214D01*
X157858657Y-96747592D01*
X158206371Y-96400485D01*
X158394785Y-95946734D01*
X158394786Y-95944579D01*
X160804786Y-95944579D01*
X160992408Y-96398657D01*
X161339515Y-96746371D01*
X161793266Y-96934785D01*
X162284579Y-96935214D01*
X162738657Y-96747592D01*
X163086371Y-96400485D01*
X163274785Y-95946734D01*
X163275214Y-95455421D01*
X163087592Y-95001343D01*
X162740485Y-94653629D01*
X162286734Y-94465215D01*
X161795421Y-94464786D01*
X161341343Y-94652408D01*
X160993629Y-94999515D01*
X160805215Y-95453266D01*
X160804786Y-95944579D01*
X158394786Y-95944579D01*
X158395214Y-95455421D01*
X158207592Y-95001343D01*
X157860485Y-94653629D01*
X157406734Y-94465215D01*
X156915421Y-94464786D01*
X156461343Y-94652408D01*
X156113629Y-94999515D01*
X155925215Y-95453266D01*
X155924786Y-95944579D01*
X152927000Y-95944579D01*
X152927000Y-91152606D01*
X153852606Y-90227000D01*
X163547394Y-90227000D01*
X164473000Y-91152606D01*
M02*
