G04 #@! TF.FileFunction,Soldermask,Bot*
%FSLAX46Y46*%
G04 Gerber Fmt 4.6, Leading zero omitted, Abs format (unit mm)*
G04 Created by KiCad (PCBNEW 4.0.2-stable) date 20/06/2016 17:59:36*
%MOMM*%
G01*
G04 APERTURE LIST*
%ADD10C,0.100000*%
%ADD11C,4.400000*%
%ADD12C,2.200000*%
%ADD13C,2.400000*%
%ADD14R,2.432000X2.127200*%
%ADD15O,2.432000X2.127200*%
%ADD16C,3.400000*%
%ADD17C,1.600000*%
%ADD18C,3.600000*%
%ADD19C,2.900000*%
G04 APERTURE END LIST*
D10*
D11*
X199650000Y-216000000D03*
D12*
X205000000Y-222840000D03*
X207540000Y-222840000D03*
X210080000Y-222840000D03*
X202460000Y-222840000D03*
X199920000Y-222840000D03*
X199920000Y-209160000D03*
X202460000Y-209160000D03*
X210080000Y-209160000D03*
X207540000Y-209160000D03*
X205000000Y-209160000D03*
D11*
X210350000Y-216000000D03*
X199650000Y-135000000D03*
D12*
X205000000Y-141840000D03*
X207540000Y-141840000D03*
X210080000Y-141840000D03*
X202460000Y-141840000D03*
X199920000Y-141840000D03*
X199920000Y-128160000D03*
X202460000Y-128160000D03*
X210080000Y-128160000D03*
X207540000Y-128160000D03*
X205000000Y-128160000D03*
D11*
X210350000Y-135000000D03*
X205000000Y-95350000D03*
D12*
X211840000Y-90000000D03*
X211840000Y-87460000D03*
X211840000Y-84920000D03*
X211840000Y-92540000D03*
X211840000Y-95080000D03*
X198160000Y-95080000D03*
X198160000Y-92540000D03*
X198160000Y-84920000D03*
X198160000Y-87460000D03*
X198160000Y-90000000D03*
D11*
X205000000Y-84650000D03*
X141000000Y-140350000D03*
D12*
X147840000Y-135000000D03*
X147840000Y-132460000D03*
X147840000Y-129920000D03*
X147840000Y-137540000D03*
X147840000Y-140080000D03*
X134160000Y-140080000D03*
X134160000Y-137540000D03*
X134160000Y-129920000D03*
X134160000Y-132460000D03*
X134160000Y-135000000D03*
D11*
X141000000Y-129650000D03*
X141000000Y-95350000D03*
D12*
X147840000Y-90000000D03*
X147840000Y-87460000D03*
X147840000Y-84920000D03*
X147840000Y-92540000D03*
X147840000Y-95080000D03*
X134160000Y-95080000D03*
X134160000Y-92540000D03*
X134160000Y-84920000D03*
X134160000Y-87460000D03*
X134160000Y-90000000D03*
D11*
X141000000Y-84650000D03*
D13*
X164250000Y-183750000D03*
X164250000Y-188250000D03*
X157750000Y-183750000D03*
X157750000Y-188250000D03*
X189250000Y-218750000D03*
X189250000Y-223250000D03*
X182750000Y-218750000D03*
X182750000Y-223250000D03*
X189250000Y-208750000D03*
X189250000Y-213250000D03*
X182750000Y-208750000D03*
X182750000Y-213250000D03*
X178250000Y-132750000D03*
X178250000Y-137250000D03*
X171750000Y-132750000D03*
X171750000Y-137250000D03*
X178250000Y-87750000D03*
X178250000Y-92250000D03*
X171750000Y-87750000D03*
X171750000Y-92250000D03*
X129250000Y-285750000D03*
X129250000Y-290250000D03*
X122750000Y-285750000D03*
X122750000Y-290250000D03*
X114250000Y-285750000D03*
X114250000Y-290250000D03*
X107750000Y-285750000D03*
X107750000Y-290250000D03*
X129250000Y-275750000D03*
X129250000Y-280250000D03*
X122750000Y-275750000D03*
X122750000Y-280250000D03*
X114250000Y-275750000D03*
X114250000Y-280250000D03*
X107750000Y-275750000D03*
X107750000Y-280250000D03*
X129250000Y-265750000D03*
X129250000Y-270250000D03*
X122750000Y-265750000D03*
X122750000Y-270250000D03*
X114250000Y-265750000D03*
X114250000Y-270250000D03*
X107750000Y-265750000D03*
X107750000Y-270250000D03*
X129250000Y-255750000D03*
X129250000Y-260250000D03*
X122750000Y-255750000D03*
X122750000Y-260250000D03*
X114250000Y-255750000D03*
X114250000Y-260250000D03*
X107750000Y-255750000D03*
X107750000Y-260250000D03*
X129250000Y-245750000D03*
X129250000Y-250250000D03*
X122750000Y-245750000D03*
X122750000Y-250250000D03*
X114250000Y-245750000D03*
X114250000Y-250250000D03*
X107750000Y-245750000D03*
X107750000Y-250250000D03*
X174250000Y-218750000D03*
X174250000Y-223250000D03*
X167750000Y-218750000D03*
X167750000Y-223250000D03*
X174250000Y-208750000D03*
X174250000Y-213250000D03*
X167750000Y-208750000D03*
X167750000Y-213250000D03*
X159250000Y-218750000D03*
X159250000Y-223250000D03*
X152750000Y-218750000D03*
X152750000Y-223250000D03*
X159250000Y-208750000D03*
X159250000Y-213250000D03*
X152750000Y-208750000D03*
X152750000Y-213250000D03*
X144250000Y-218750000D03*
X144250000Y-223250000D03*
X137750000Y-218750000D03*
X137750000Y-223250000D03*
X144250000Y-208750000D03*
X144250000Y-213250000D03*
X137750000Y-208750000D03*
X137750000Y-213250000D03*
X129250000Y-218750000D03*
X129250000Y-223250000D03*
X122750000Y-218750000D03*
X122750000Y-223250000D03*
X129250000Y-208750000D03*
X129250000Y-213250000D03*
X122750000Y-208750000D03*
X122750000Y-213250000D03*
X114250000Y-218750000D03*
X114250000Y-223250000D03*
X107750000Y-218750000D03*
X107750000Y-223250000D03*
X114250000Y-208750000D03*
X114250000Y-213250000D03*
X107750000Y-208750000D03*
X107750000Y-213250000D03*
X144250000Y-183750000D03*
X144250000Y-188250000D03*
X137750000Y-183750000D03*
X137750000Y-188250000D03*
X129250000Y-183750000D03*
X129250000Y-188250000D03*
X122750000Y-183750000D03*
X122750000Y-188250000D03*
X114250000Y-183750000D03*
X114250000Y-188250000D03*
X107750000Y-183750000D03*
X107750000Y-188250000D03*
X114250000Y-132750000D03*
X114250000Y-137250000D03*
X107750000Y-132750000D03*
X107750000Y-137250000D03*
X114250000Y-87750000D03*
X114250000Y-92250000D03*
X107750000Y-87750000D03*
X107750000Y-92250000D03*
X167750000Y-62250000D03*
X167750000Y-57750000D03*
X174250000Y-62250000D03*
X174250000Y-57750000D03*
X174250000Y-47750000D03*
X174250000Y-52250000D03*
X167750000Y-47750000D03*
X167750000Y-52250000D03*
X152750000Y-62250000D03*
X152750000Y-57750000D03*
X159250000Y-62250000D03*
X159250000Y-57750000D03*
X159250000Y-47750000D03*
X159250000Y-52250000D03*
X152750000Y-47750000D03*
X152750000Y-52250000D03*
X137750000Y-62250000D03*
X137750000Y-57750000D03*
X144250000Y-62250000D03*
X144250000Y-57750000D03*
X144250000Y-47750000D03*
X144250000Y-52250000D03*
X137750000Y-47750000D03*
X137750000Y-52250000D03*
X122750000Y-62250000D03*
X122750000Y-57750000D03*
X129250000Y-62250000D03*
X129250000Y-57750000D03*
X129250000Y-47750000D03*
X129250000Y-52250000D03*
X122750000Y-47750000D03*
X122750000Y-52250000D03*
X107750000Y-62250000D03*
X107750000Y-57750000D03*
X114250000Y-62250000D03*
X114250000Y-57750000D03*
X114250000Y-47750000D03*
X114250000Y-52250000D03*
X107750000Y-47750000D03*
X107750000Y-52250000D03*
D14*
X106600000Y-103380000D03*
D15*
X106600000Y-105920000D03*
X106600000Y-108460000D03*
X106600000Y-111000000D03*
X106600000Y-113540000D03*
X106600000Y-116080000D03*
D12*
X112650000Y-110850000D03*
X112650000Y-108350000D03*
X115850000Y-108350000D03*
D16*
X113600000Y-103580000D03*
X113600000Y-115620000D03*
D12*
X115850000Y-110850000D03*
D17*
X157160000Y-95700000D03*
X162040000Y-95700000D03*
D18*
X161000000Y-290000000D03*
X202000000Y-265000000D03*
X159000000Y-233000000D03*
X159000000Y-196000000D03*
X126000000Y-103000000D03*
X111000000Y-196000000D03*
X207000000Y-196000000D03*
X207000000Y-154000000D03*
X111000000Y-154000000D03*
X159000000Y-154000000D03*
X111000000Y-71000000D03*
X207000000Y-54000000D03*
X207000000Y-111000000D03*
X129000000Y-308000000D03*
X207000000Y-233000000D03*
X111000000Y-233000000D03*
X130000000Y-342000000D03*
X203000000Y-336500000D03*
X161000000Y-336500000D03*
D19*
X138399800Y-300100600D03*
X141600200Y-300100600D03*
X138399800Y-315899400D03*
X141600200Y-315899400D03*
X140000000Y-312699000D03*
X140000000Y-303301000D03*
X140000000Y-308000000D03*
X152399800Y-300100600D03*
X155600200Y-300100600D03*
X152399800Y-315899400D03*
X155600200Y-315899400D03*
X154000000Y-312699000D03*
X154000000Y-303301000D03*
X154000000Y-308000000D03*
X166399800Y-300100600D03*
X169600200Y-300100600D03*
X166399800Y-315899400D03*
X169600200Y-315899400D03*
X168000000Y-312699000D03*
X168000000Y-303301000D03*
X168000000Y-308000000D03*
X138399800Y-319100600D03*
X141600200Y-319100600D03*
X138399800Y-334899400D03*
X141600200Y-334899400D03*
X140000000Y-331699000D03*
X140000000Y-322301000D03*
X140000000Y-327000000D03*
X152399800Y-319100600D03*
X155600200Y-319100600D03*
X152399800Y-334899400D03*
X155600200Y-334899400D03*
X154000000Y-331699000D03*
X154000000Y-322301000D03*
X154000000Y-327000000D03*
X166399800Y-319100600D03*
X169600200Y-319100600D03*
X166399800Y-334899400D03*
X169600200Y-334899400D03*
X168000000Y-331699000D03*
X168000000Y-322301000D03*
X168000000Y-327000000D03*
X138399800Y-338100600D03*
X141600200Y-338100600D03*
X138399800Y-353899400D03*
X141600200Y-353899400D03*
X140000000Y-350699000D03*
X140000000Y-341301000D03*
X140000000Y-346000000D03*
X152399800Y-338100600D03*
X155600200Y-338100600D03*
X152399800Y-353899400D03*
X155600200Y-353899400D03*
X154000000Y-350699000D03*
X154000000Y-341301000D03*
X154000000Y-346000000D03*
X166399800Y-338100600D03*
X169600200Y-338100600D03*
X166399800Y-353899400D03*
X169600200Y-353899400D03*
X168000000Y-350699000D03*
X168000000Y-341301000D03*
X168000000Y-346000000D03*
X180399800Y-300100600D03*
X183600200Y-300100600D03*
X180399800Y-315899400D03*
X183600200Y-315899400D03*
X182000000Y-312699000D03*
X182000000Y-303301000D03*
X182000000Y-308000000D03*
X194399800Y-300100600D03*
X197600200Y-300100600D03*
X194399800Y-315899400D03*
X197600200Y-315899400D03*
X196000000Y-312699000D03*
X196000000Y-303301000D03*
X196000000Y-308000000D03*
X208399800Y-300100600D03*
X211600200Y-300100600D03*
X208399800Y-315899400D03*
X211600200Y-315899400D03*
X210000000Y-312699000D03*
X210000000Y-303301000D03*
X210000000Y-308000000D03*
X180399800Y-319100600D03*
X183600200Y-319100600D03*
X180399800Y-334899400D03*
X183600200Y-334899400D03*
X182000000Y-331699000D03*
X182000000Y-322301000D03*
X182000000Y-327000000D03*
X194399800Y-319100600D03*
X197600200Y-319100600D03*
X194399800Y-334899400D03*
X197600200Y-334899400D03*
X196000000Y-331699000D03*
X196000000Y-322301000D03*
X196000000Y-327000000D03*
X208399800Y-319100600D03*
X211600200Y-319100600D03*
X208399800Y-334899400D03*
X211600200Y-334899400D03*
X210000000Y-331699000D03*
X210000000Y-322301000D03*
X210000000Y-327000000D03*
X180399800Y-338100600D03*
X183600200Y-338100600D03*
X180399800Y-353899400D03*
X183600200Y-353899400D03*
X182000000Y-350699000D03*
X182000000Y-341301000D03*
X182000000Y-346000000D03*
X194399800Y-338100600D03*
X197600200Y-338100600D03*
X194399800Y-353899400D03*
X197600200Y-353899400D03*
X196000000Y-350699000D03*
X196000000Y-341301000D03*
X196000000Y-346000000D03*
X208399800Y-338100600D03*
X211600200Y-338100600D03*
X208399800Y-353899400D03*
X211600200Y-353899400D03*
X210000000Y-350699000D03*
X210000000Y-341301000D03*
X210000000Y-346000000D03*
D11*
X117700000Y-171000000D03*
D12*
X112000000Y-163500000D03*
X109500000Y-163500000D03*
X114500000Y-163500000D03*
X114500000Y-178000000D03*
X109500000Y-178000000D03*
D11*
X106300000Y-171000000D03*
X117700000Y-308000000D03*
D12*
X112000000Y-300500000D03*
X109500000Y-300500000D03*
X114500000Y-300500000D03*
X114500000Y-315000000D03*
X109500000Y-315000000D03*
D11*
X106300000Y-308000000D03*
X117700000Y-346000000D03*
D12*
X112000000Y-338500000D03*
X109500000Y-338500000D03*
X114500000Y-338500000D03*
X114500000Y-353000000D03*
X109500000Y-353000000D03*
D11*
X106300000Y-346000000D03*
X138300000Y-252000000D03*
D12*
X144000000Y-259500000D03*
X146500000Y-259500000D03*
X141500000Y-259500000D03*
X141500000Y-245000000D03*
X146500000Y-245000000D03*
D11*
X149700000Y-252000000D03*
X144000000Y-278300000D03*
D12*
X136500000Y-284000000D03*
X136500000Y-286500000D03*
X136500000Y-281500000D03*
X151000000Y-281500000D03*
X151000000Y-286500000D03*
D11*
X144000000Y-289700000D03*
X170300000Y-252000000D03*
D12*
X176000000Y-259500000D03*
X178500000Y-259500000D03*
X173500000Y-259500000D03*
X173500000Y-245000000D03*
X178500000Y-245000000D03*
D11*
X181700000Y-252000000D03*
X176000000Y-289700000D03*
D12*
X183500000Y-284000000D03*
X183500000Y-281500000D03*
X183500000Y-286500000D03*
X169000000Y-286500000D03*
X169000000Y-281500000D03*
D11*
X176000000Y-278300000D03*
X213700000Y-252000000D03*
D12*
X208000000Y-244500000D03*
X205500000Y-244500000D03*
X210500000Y-244500000D03*
X210500000Y-259000000D03*
X205500000Y-259000000D03*
D11*
X202300000Y-252000000D03*
X213700000Y-284000000D03*
D12*
X208000000Y-276500000D03*
X205500000Y-276500000D03*
X210500000Y-276500000D03*
X210500000Y-291000000D03*
X205500000Y-291000000D03*
D11*
X202300000Y-284000000D03*
X144000000Y-165300000D03*
D12*
X136500000Y-171000000D03*
X136500000Y-173500000D03*
X136500000Y-168500000D03*
X151000000Y-168500000D03*
X151000000Y-173500000D03*
D11*
X144000000Y-176700000D03*
X176000000Y-165300000D03*
D12*
X168500000Y-171000000D03*
X168500000Y-173500000D03*
X168500000Y-168500000D03*
X183000000Y-168500000D03*
X183000000Y-173500000D03*
D11*
X176000000Y-176700000D03*
X213700000Y-171000000D03*
D12*
X208000000Y-163500000D03*
X205500000Y-163500000D03*
X210500000Y-163500000D03*
X210500000Y-178000000D03*
X205500000Y-178000000D03*
D11*
X202300000Y-171000000D03*
M02*
